<?xml version="1.0" encoding="utf-8"?>
<svg viewBox="331.804 124.821 66 66" width="66" height="66" xmlns="http://www.w3.org/2000/svg">
  <path d="M 331.804 124.821 L 333.804 124.821 L 333.804 126.821 L 331.804 126.821 L 331.804 124.821 Z M 333.804 124.821 L 335.804 124.821 L 335.804 126.821 L 333.804 126.821 L 333.804 124.821 Z M 335.804 124.821 L 337.804 124.821 L 337.804 126.821 L 335.804 126.821 L 335.804 124.821 Z M 337.804 124.821 L 339.804 124.821 L 339.804 126.821 L 337.804 126.821 L 337.804 124.821 Z M 339.804 124.821 L 341.804 124.821 L 341.804 126.821 L 339.804 126.821 L 339.804 124.821 Z M 341.804 124.821 L 343.804 124.821 L 343.804 126.821 L 341.804 126.821 L 341.804 124.821 Z M 343.804 124.821 L 345.804 124.821 L 345.804 126.821 L 343.804 126.821 L 343.804 124.821 Z M 347.804 124.821 L 349.804 124.821 L 349.804 126.821 L 347.804 126.821 L 347.804 124.821 Z M 349.804 124.821 L 351.804 124.821 L 351.804 126.821 L 349.804 126.821 L 349.804 124.821 Z M 351.804 124.821 L 353.804 124.821 L 353.804 126.821 L 351.804 126.821 L 351.804 124.821 Z M 353.804 124.821 L 355.804 124.821 L 355.804 126.821 L 353.804 126.821 L 353.804 124.821 Z M 357.804 124.821 L 359.804 124.821 L 359.804 126.821 L 357.804 126.821 L 357.804 124.821 Z M 365.804 124.821 L 367.804 124.821 L 367.804 126.821 L 365.804 126.821 L 365.804 124.821 Z M 367.804 124.821 L 369.804 124.821 L 369.804 126.821 L 367.804 126.821 L 367.804 124.821 Z M 373.804 124.821 L 375.804 124.821 L 375.804 126.821 L 373.804 126.821 L 373.804 124.821 Z M 375.804 124.821 L 377.804 124.821 L 377.804 126.821 L 375.804 126.821 L 375.804 124.821 Z M 383.804 124.821 L 385.804 124.821 L 385.804 126.821 L 383.804 126.821 L 383.804 124.821 Z M 385.804 124.821 L 387.804 124.821 L 387.804 126.821 L 385.804 126.821 L 385.804 124.821 Z M 387.804 124.821 L 389.804 124.821 L 389.804 126.821 L 387.804 126.821 L 387.804 124.821 Z M 389.804 124.821 L 391.804 124.821 L 391.804 126.821 L 389.804 126.821 L 389.804 124.821 Z M 391.804 124.821 L 393.804 124.821 L 393.804 126.821 L 391.804 126.821 L 391.804 124.821 Z M 393.804 124.821 L 395.804 124.821 L 395.804 126.821 L 393.804 126.821 L 393.804 124.821 Z M 395.804 124.821 L 397.804 124.821 L 397.804 126.821 L 395.804 126.821 L 395.804 124.821 Z M 331.804 126.821 L 333.804 126.821 L 333.804 128.821 L 331.804 128.821 L 331.804 126.821 Z M 343.804 126.821 L 345.804 126.821 L 345.804 128.821 L 343.804 128.821 L 343.804 126.821 Z M 353.804 126.821 L 355.804 126.821 L 355.804 128.821 L 353.804 128.821 L 353.804 126.821 Z M 355.804 126.821 L 357.804 126.821 L 357.804 128.821 L 355.804 128.821 L 355.804 126.821 Z M 357.804 126.821 L 359.804 126.821 L 359.804 128.821 L 357.804 128.821 L 357.804 126.821 Z M 369.804 126.821 L 371.804 126.821 L 371.804 128.821 L 369.804 128.821 L 369.804 126.821 Z M 379.804 126.821 L 381.804 126.821 L 381.804 128.821 L 379.804 128.821 L 379.804 126.821 Z M 383.804 126.821 L 385.804 126.821 L 385.804 128.821 L 383.804 128.821 L 383.804 126.821 Z M 395.804 126.821 L 397.804 126.821 L 397.804 128.821 L 395.804 128.821 L 395.804 126.821 Z M 331.804 128.821 L 333.804 128.821 L 333.804 130.821 L 331.804 130.821 L 331.804 128.821 Z M 335.804 128.821 L 337.804 128.821 L 337.804 130.821 L 335.804 130.821 L 335.804 128.821 Z M 337.804 128.821 L 339.804 128.821 L 339.804 130.821 L 337.804 130.821 L 337.804 128.821 Z M 339.804 128.821 L 341.804 128.821 L 341.804 130.821 L 339.804 130.821 L 339.804 128.821 Z M 343.804 128.821 L 345.804 128.821 L 345.804 130.821 L 343.804 130.821 L 343.804 128.821 Z M 349.804 128.821 L 351.804 128.821 L 351.804 130.821 L 349.804 130.821 L 349.804 128.821 Z M 353.804 128.821 L 355.804 128.821 L 355.804 130.821 L 353.804 130.821 L 353.804 128.821 Z M 357.804 128.821 L 359.804 128.821 L 359.804 130.821 L 357.804 130.821 L 357.804 128.821 Z M 361.804 128.821 L 363.804 128.821 L 363.804 130.821 L 361.804 130.821 L 361.804 128.821 Z M 363.804 128.821 L 365.804 128.821 L 365.804 130.821 L 363.804 130.821 L 363.804 128.821 Z M 369.804 128.821 L 371.804 128.821 L 371.804 130.821 L 369.804 130.821 L 369.804 128.821 Z M 373.804 128.821 L 375.804 128.821 L 375.804 130.821 L 373.804 130.821 L 373.804 128.821 Z M 377.804 128.821 L 379.804 128.821 L 379.804 130.821 L 377.804 130.821 L 377.804 128.821 Z M 379.804 128.821 L 381.804 128.821 L 381.804 130.821 L 379.804 130.821 L 379.804 128.821 Z M 383.804 128.821 L 385.804 128.821 L 385.804 130.821 L 383.804 130.821 L 383.804 128.821 Z M 387.804 128.821 L 389.804 128.821 L 389.804 130.821 L 387.804 130.821 L 387.804 128.821 Z M 389.804 128.821 L 391.804 128.821 L 391.804 130.821 L 389.804 130.821 L 389.804 128.821 Z M 391.804 128.821 L 393.804 128.821 L 393.804 130.821 L 391.804 130.821 L 391.804 128.821 Z M 395.804 128.821 L 397.804 128.821 L 397.804 130.821 L 395.804 130.821 L 395.804 128.821 Z M 331.804 130.821 L 333.804 130.821 L 333.804 132.821 L 331.804 132.821 L 331.804 130.821 Z M 335.804 130.821 L 337.804 130.821 L 337.804 132.821 L 335.804 132.821 L 335.804 130.821 Z M 337.804 130.821 L 339.804 130.821 L 339.804 132.821 L 337.804 132.821 L 337.804 130.821 Z M 339.804 130.821 L 341.804 130.821 L 341.804 132.821 L 339.804 132.821 L 339.804 130.821 Z M 343.804 130.821 L 345.804 130.821 L 345.804 132.821 L 343.804 132.821 L 343.804 130.821 Z M 351.804 130.821 L 353.804 130.821 L 353.804 132.821 L 351.804 132.821 L 351.804 130.821 Z M 353.804 130.821 L 355.804 130.821 L 355.804 132.821 L 353.804 132.821 L 353.804 130.821 Z M 357.804 130.821 L 359.804 130.821 L 359.804 132.821 L 357.804 132.821 L 357.804 130.821 Z M 361.804 130.821 L 363.804 130.821 L 363.804 132.821 L 361.804 132.821 L 361.804 130.821 Z M 363.804 130.821 L 365.804 130.821 L 365.804 132.821 L 363.804 132.821 L 363.804 130.821 Z M 365.804 130.821 L 367.804 130.821 L 367.804 132.821 L 365.804 132.821 L 365.804 130.821 Z M 369.804 130.821 L 371.804 130.821 L 371.804 132.821 L 369.804 132.821 L 369.804 130.821 Z M 371.804 130.821 L 373.804 130.821 L 373.804 132.821 L 371.804 132.821 L 371.804 130.821 Z M 373.804 130.821 L 375.804 130.821 L 375.804 132.821 L 373.804 132.821 L 373.804 130.821 Z M 383.804 130.821 L 385.804 130.821 L 385.804 132.821 L 383.804 132.821 L 383.804 130.821 Z M 387.804 130.821 L 389.804 130.821 L 389.804 132.821 L 387.804 132.821 L 387.804 130.821 Z M 389.804 130.821 L 391.804 130.821 L 391.804 132.821 L 389.804 132.821 L 389.804 130.821 Z M 391.804 130.821 L 393.804 130.821 L 393.804 132.821 L 391.804 132.821 L 391.804 130.821 Z M 395.804 130.821 L 397.804 130.821 L 397.804 132.821 L 395.804 132.821 L 395.804 130.821 Z M 331.804 132.821 L 333.804 132.821 L 333.804 134.821 L 331.804 134.821 L 331.804 132.821 Z M 335.804 132.821 L 337.804 132.821 L 337.804 134.821 L 335.804 134.821 L 335.804 132.821 Z M 337.804 132.821 L 339.804 132.821 L 339.804 134.821 L 337.804 134.821 L 337.804 132.821 Z M 339.804 132.821 L 341.804 132.821 L 341.804 134.821 L 339.804 134.821 L 339.804 132.821 Z M 343.804 132.821 L 345.804 132.821 L 345.804 134.821 L 343.804 134.821 L 343.804 132.821 Z M 351.804 132.821 L 353.804 132.821 L 353.804 134.821 L 351.804 134.821 L 351.804 132.821 Z M 353.804 132.821 L 355.804 132.821 L 355.804 134.821 L 353.804 134.821 L 353.804 132.821 Z M 355.804 132.821 L 357.804 132.821 L 357.804 134.821 L 355.804 134.821 L 355.804 132.821 Z M 357.804 132.821 L 359.804 132.821 L 359.804 134.821 L 357.804 134.821 L 357.804 132.821 Z M 359.804 132.821 L 361.804 132.821 L 361.804 134.821 L 359.804 134.821 L 359.804 132.821 Z M 363.804 132.821 L 365.804 132.821 L 365.804 134.821 L 363.804 134.821 L 363.804 132.821 Z M 367.804 132.821 L 369.804 132.821 L 369.804 134.821 L 367.804 134.821 L 367.804 132.821 Z M 369.804 132.821 L 371.804 132.821 L 371.804 134.821 L 369.804 134.821 L 369.804 132.821 Z M 373.804 132.821 L 375.804 132.821 L 375.804 134.821 L 373.804 134.821 L 373.804 132.821 Z M 383.804 132.821 L 385.804 132.821 L 385.804 134.821 L 383.804 134.821 L 383.804 132.821 Z M 387.804 132.821 L 389.804 132.821 L 389.804 134.821 L 387.804 134.821 L 387.804 132.821 Z M 389.804 132.821 L 391.804 132.821 L 391.804 134.821 L 389.804 134.821 L 389.804 132.821 Z M 391.804 132.821 L 393.804 132.821 L 393.804 134.821 L 391.804 134.821 L 391.804 132.821 Z M 395.804 132.821 L 397.804 132.821 L 397.804 134.821 L 395.804 134.821 L 395.804 132.821 Z M 331.804 134.821 L 333.804 134.821 L 333.804 136.821 L 331.804 136.821 L 331.804 134.821 Z M 343.804 134.821 L 345.804 134.821 L 345.804 136.821 L 343.804 136.821 L 343.804 134.821 Z M 349.804 134.821 L 351.804 134.821 L 351.804 136.821 L 349.804 136.821 L 349.804 134.821 Z M 353.804 134.821 L 355.804 134.821 L 355.804 136.821 L 353.804 136.821 L 353.804 134.821 Z M 359.804 134.821 L 361.804 134.821 L 361.804 136.821 L 359.804 136.821 L 359.804 134.821 Z M 363.804 134.821 L 365.804 134.821 L 365.804 136.821 L 363.804 136.821 L 363.804 134.821 Z M 377.804 134.821 L 379.804 134.821 L 379.804 136.821 L 377.804 136.821 L 377.804 134.821 Z M 383.804 134.821 L 385.804 134.821 L 385.804 136.821 L 383.804 136.821 L 383.804 134.821 Z M 395.804 134.821 L 397.804 134.821 L 397.804 136.821 L 395.804 136.821 L 395.804 134.821 Z M 331.804 136.821 L 333.804 136.821 L 333.804 138.821 L 331.804 138.821 L 331.804 136.821 Z M 333.804 136.821 L 335.804 136.821 L 335.804 138.821 L 333.804 138.821 L 333.804 136.821 Z M 335.804 136.821 L 337.804 136.821 L 337.804 138.821 L 335.804 138.821 L 335.804 136.821 Z M 337.804 136.821 L 339.804 136.821 L 339.804 138.821 L 337.804 138.821 L 337.804 136.821 Z M 339.804 136.821 L 341.804 136.821 L 341.804 138.821 L 339.804 138.821 L 339.804 136.821 Z M 341.804 136.821 L 343.804 136.821 L 343.804 138.821 L 341.804 138.821 L 341.804 136.821 Z M 343.804 136.821 L 345.804 136.821 L 345.804 138.821 L 343.804 138.821 L 343.804 136.821 Z M 347.804 136.821 L 349.804 136.821 L 349.804 138.821 L 347.804 138.821 L 347.804 136.821 Z M 351.804 136.821 L 353.804 136.821 L 353.804 138.821 L 351.804 138.821 L 351.804 136.821 Z M 355.804 136.821 L 357.804 136.821 L 357.804 138.821 L 355.804 138.821 L 355.804 136.821 Z M 359.804 136.821 L 361.804 136.821 L 361.804 138.821 L 359.804 138.821 L 359.804 136.821 Z M 363.804 136.821 L 365.804 136.821 L 365.804 138.821 L 363.804 138.821 L 363.804 136.821 Z M 367.804 136.821 L 369.804 136.821 L 369.804 138.821 L 367.804 138.821 L 367.804 136.821 Z M 371.804 136.821 L 373.804 136.821 L 373.804 138.821 L 371.804 138.821 L 371.804 136.821 Z M 375.804 136.821 L 377.804 136.821 L 377.804 138.821 L 375.804 138.821 L 375.804 136.821 Z M 379.804 136.821 L 381.804 136.821 L 381.804 138.821 L 379.804 138.821 L 379.804 136.821 Z M 383.804 136.821 L 385.804 136.821 L 385.804 138.821 L 383.804 138.821 L 383.804 136.821 Z M 385.804 136.821 L 387.804 136.821 L 387.804 138.821 L 385.804 138.821 L 385.804 136.821 Z M 387.804 136.821 L 389.804 136.821 L 389.804 138.821 L 387.804 138.821 L 387.804 136.821 Z M 389.804 136.821 L 391.804 136.821 L 391.804 138.821 L 389.804 138.821 L 389.804 136.821 Z M 391.804 136.821 L 393.804 136.821 L 393.804 138.821 L 391.804 138.821 L 391.804 136.821 Z M 393.804 136.821 L 395.804 136.821 L 395.804 138.821 L 393.804 138.821 L 393.804 136.821 Z M 395.804 136.821 L 397.804 136.821 L 397.804 138.821 L 395.804 138.821 L 395.804 136.821 Z M 347.804 138.821 L 349.804 138.821 L 349.804 140.821 L 347.804 140.821 L 347.804 138.821 Z M 349.804 138.821 L 351.804 138.821 L 351.804 140.821 L 349.804 140.821 L 349.804 138.821 Z M 355.804 138.821 L 357.804 138.821 L 357.804 140.821 L 355.804 140.821 L 355.804 138.821 Z M 357.804 138.821 L 359.804 138.821 L 359.804 140.821 L 357.804 140.821 L 357.804 138.821 Z M 361.804 138.821 L 363.804 138.821 L 363.804 140.821 L 361.804 140.821 L 361.804 138.821 Z M 363.804 138.821 L 365.804 138.821 L 365.804 140.821 L 363.804 140.821 L 363.804 138.821 Z M 367.804 138.821 L 369.804 138.821 L 369.804 140.821 L 367.804 140.821 L 367.804 138.821 Z M 371.804 138.821 L 373.804 138.821 L 373.804 140.821 L 371.804 140.821 L 371.804 138.821 Z M 377.804 138.821 L 379.804 138.821 L 379.804 140.821 L 377.804 140.821 L 377.804 138.821 Z M 331.804 140.821 L 333.804 140.821 L 333.804 142.821 L 331.804 142.821 L 331.804 140.821 Z M 333.804 140.821 L 335.804 140.821 L 335.804 142.821 L 333.804 142.821 L 333.804 140.821 Z M 337.804 140.821 L 339.804 140.821 L 339.804 142.821 L 337.804 142.821 L 337.804 140.821 Z M 339.804 140.821 L 341.804 140.821 L 341.804 142.821 L 339.804 142.821 L 339.804 140.821 Z M 343.804 140.821 L 345.804 140.821 L 345.804 142.821 L 343.804 142.821 L 343.804 140.821 Z M 349.804 140.821 L 351.804 140.821 L 351.804 142.821 L 349.804 142.821 L 349.804 140.821 Z M 355.804 140.821 L 357.804 140.821 L 357.804 142.821 L 355.804 142.821 L 355.804 140.821 Z M 359.804 140.821 L 361.804 140.821 L 361.804 142.821 L 359.804 142.821 L 359.804 140.821 Z M 363.804 140.821 L 365.804 140.821 L 365.804 142.821 L 363.804 142.821 L 363.804 140.821 Z M 365.804 140.821 L 367.804 140.821 L 367.804 142.821 L 365.804 142.821 L 365.804 140.821 Z M 369.804 140.821 L 371.804 140.821 L 371.804 142.821 L 369.804 142.821 L 369.804 140.821 Z M 371.804 140.821 L 373.804 140.821 L 373.804 142.821 L 371.804 142.821 L 371.804 140.821 Z M 377.804 140.821 L 379.804 140.821 L 379.804 142.821 L 377.804 142.821 L 377.804 140.821 Z M 379.804 140.821 L 381.804 140.821 L 381.804 142.821 L 379.804 142.821 L 379.804 140.821 Z M 383.804 140.821 L 385.804 140.821 L 385.804 142.821 L 383.804 142.821 L 383.804 140.821 Z M 395.804 140.821 L 397.804 140.821 L 397.804 142.821 L 395.804 142.821 L 395.804 140.821 Z M 331.804 142.821 L 333.804 142.821 L 333.804 144.821 L 331.804 144.821 L 331.804 142.821 Z M 333.804 142.821 L 335.804 142.821 L 335.804 144.821 L 333.804 144.821 L 333.804 142.821 Z M 339.804 142.821 L 341.804 142.821 L 341.804 144.821 L 339.804 144.821 L 339.804 142.821 Z M 341.804 142.821 L 343.804 142.821 L 343.804 144.821 L 341.804 144.821 L 341.804 142.821 Z M 347.804 142.821 L 349.804 142.821 L 349.804 144.821 L 347.804 144.821 L 347.804 142.821 Z M 351.804 142.821 L 353.804 142.821 L 353.804 144.821 L 351.804 144.821 L 351.804 142.821 Z M 357.804 142.821 L 359.804 142.821 L 359.804 144.821 L 357.804 144.821 L 357.804 142.821 Z M 359.804 142.821 L 361.804 142.821 L 361.804 144.821 L 359.804 144.821 L 359.804 142.821 Z M 361.804 142.821 L 363.804 142.821 L 363.804 144.821 L 361.804 144.821 L 361.804 142.821 Z M 363.804 142.821 L 365.804 142.821 L 365.804 144.821 L 363.804 144.821 L 363.804 142.821 Z M 367.804 142.821 L 369.804 142.821 L 369.804 144.821 L 367.804 144.821 L 367.804 142.821 Z M 369.804 142.821 L 371.804 142.821 L 371.804 144.821 L 369.804 144.821 L 369.804 142.821 Z M 375.804 142.821 L 377.804 142.821 L 377.804 144.821 L 375.804 144.821 L 375.804 142.821 Z M 377.804 142.821 L 379.804 142.821 L 379.804 144.821 L 377.804 144.821 L 377.804 142.821 Z M 379.804 142.821 L 381.804 142.821 L 381.804 144.821 L 379.804 144.821 L 379.804 142.821 Z M 387.804 142.821 L 389.804 142.821 L 389.804 144.821 L 387.804 144.821 L 387.804 142.821 Z M 391.804 142.821 L 393.804 142.821 L 393.804 144.821 L 391.804 144.821 L 391.804 142.821 Z M 393.804 142.821 L 395.804 142.821 L 395.804 144.821 L 393.804 144.821 L 393.804 142.821 Z M 341.804 144.821 L 343.804 144.821 L 343.804 146.821 L 341.804 146.821 L 341.804 144.821 Z M 343.804 144.821 L 345.804 144.821 L 345.804 146.821 L 343.804 146.821 L 343.804 144.821 Z M 347.804 144.821 L 349.804 144.821 L 349.804 146.821 L 347.804 146.821 L 347.804 144.821 Z M 349.804 144.821 L 351.804 144.821 L 351.804 146.821 L 349.804 146.821 L 349.804 144.821 Z M 355.804 144.821 L 357.804 144.821 L 357.804 146.821 L 355.804 146.821 L 355.804 144.821 Z M 361.804 144.821 L 363.804 144.821 L 363.804 146.821 L 361.804 146.821 L 361.804 144.821 Z M 367.804 144.821 L 369.804 144.821 L 369.804 146.821 L 367.804 146.821 L 367.804 144.821 Z M 373.804 144.821 L 375.804 144.821 L 375.804 146.821 L 373.804 146.821 L 373.804 144.821 Z M 377.804 144.821 L 379.804 144.821 L 379.804 146.821 L 377.804 146.821 L 377.804 144.821 Z M 381.804 144.821 L 383.804 144.821 L 383.804 146.821 L 381.804 146.821 L 381.804 144.821 Z M 387.804 144.821 L 389.804 144.821 L 389.804 146.821 L 387.804 146.821 L 387.804 144.821 Z M 393.804 144.821 L 395.804 144.821 L 395.804 146.821 L 393.804 146.821 L 393.804 144.821 Z M 395.804 144.821 L 397.804 144.821 L 397.804 146.821 L 395.804 146.821 L 395.804 144.821 Z M 331.804 146.821 L 333.804 146.821 L 333.804 148.821 L 331.804 148.821 L 331.804 146.821 Z M 333.804 146.821 L 335.804 146.821 L 335.804 148.821 L 333.804 148.821 L 333.804 146.821 Z M 337.804 146.821 L 339.804 146.821 L 339.804 148.821 L 337.804 148.821 L 337.804 146.821 Z M 339.804 146.821 L 341.804 146.821 L 341.804 148.821 L 339.804 148.821 L 339.804 146.821 Z M 365.804 146.821 L 367.804 146.821 L 367.804 148.821 L 365.804 148.821 L 365.804 146.821 Z M 371.804 146.821 L 373.804 146.821 L 373.804 148.821 L 371.804 148.821 L 371.804 146.821 Z M 383.804 146.821 L 385.804 146.821 L 385.804 148.821 L 383.804 148.821 L 383.804 146.821 Z M 385.804 146.821 L 387.804 146.821 L 387.804 148.821 L 385.804 148.821 L 385.804 146.821 Z M 387.804 146.821 L 389.804 146.821 L 389.804 148.821 L 387.804 148.821 L 387.804 146.821 Z M 389.804 146.821 L 391.804 146.821 L 391.804 148.821 L 389.804 148.821 L 389.804 146.821 Z M 391.804 146.821 L 393.804 146.821 L 393.804 148.821 L 391.804 148.821 L 391.804 146.821 Z M 337.804 148.821 L 339.804 148.821 L 339.804 150.821 L 337.804 150.821 L 337.804 148.821 Z M 343.804 148.821 L 345.804 148.821 L 345.804 150.821 L 343.804 150.821 L 343.804 148.821 Z M 347.804 148.821 L 349.804 148.821 L 349.804 150.821 L 347.804 150.821 L 347.804 148.821 Z M 349.804 148.821 L 351.804 148.821 L 351.804 150.821 L 349.804 150.821 L 349.804 148.821 Z M 351.804 148.821 L 353.804 148.821 L 353.804 150.821 L 351.804 150.821 L 351.804 148.821 Z M 357.804 148.821 L 359.804 148.821 L 359.804 150.821 L 357.804 150.821 L 357.804 148.821 Z M 359.804 148.821 L 361.804 148.821 L 361.804 150.821 L 359.804 150.821 L 359.804 148.821 Z M 361.804 148.821 L 363.804 148.821 L 363.804 150.821 L 361.804 150.821 L 361.804 148.821 Z M 369.804 148.821 L 371.804 148.821 L 371.804 150.821 L 369.804 150.821 L 369.804 148.821 Z M 371.804 148.821 L 373.804 148.821 L 373.804 150.821 L 371.804 150.821 L 371.804 148.821 Z M 379.804 148.821 L 381.804 148.821 L 381.804 150.821 L 379.804 150.821 L 379.804 148.821 Z M 383.804 148.821 L 385.804 148.821 L 385.804 150.821 L 383.804 150.821 L 383.804 148.821 Z M 393.804 148.821 L 395.804 148.821 L 395.804 150.821 L 393.804 150.821 L 393.804 148.821 Z M 395.804 148.821 L 397.804 148.821 L 397.804 150.821 L 395.804 150.821 L 395.804 148.821 Z M 331.804 150.821 L 333.804 150.821 L 333.804 152.821 L 331.804 152.821 L 331.804 150.821 Z M 333.804 150.821 L 335.804 150.821 L 335.804 152.821 L 333.804 152.821 L 333.804 150.821 Z M 335.804 150.821 L 337.804 150.821 L 337.804 152.821 L 335.804 152.821 L 335.804 150.821 Z M 351.804 150.821 L 353.804 150.821 L 353.804 152.821 L 351.804 152.821 L 351.804 150.821 Z M 355.804 150.821 L 357.804 150.821 L 357.804 152.821 L 355.804 152.821 L 355.804 150.821 Z M 359.804 150.821 L 361.804 150.821 L 361.804 152.821 L 359.804 152.821 L 359.804 150.821 Z M 361.804 150.821 L 363.804 150.821 L 363.804 152.821 L 361.804 152.821 L 361.804 150.821 Z M 363.804 150.821 L 365.804 150.821 L 365.804 152.821 L 363.804 152.821 L 363.804 150.821 Z M 367.804 150.821 L 369.804 150.821 L 369.804 152.821 L 367.804 152.821 L 367.804 150.821 Z M 375.804 150.821 L 377.804 150.821 L 377.804 152.821 L 375.804 152.821 L 375.804 150.821 Z M 377.804 150.821 L 379.804 150.821 L 379.804 152.821 L 377.804 152.821 L 377.804 150.821 Z M 381.804 150.821 L 383.804 150.821 L 383.804 152.821 L 381.804 152.821 L 381.804 150.821 Z M 337.804 152.821 L 339.804 152.821 L 339.804 154.821 L 337.804 154.821 L 337.804 152.821 Z M 341.804 152.821 L 343.804 152.821 L 343.804 154.821 L 341.804 154.821 L 341.804 152.821 Z M 343.804 152.821 L 345.804 152.821 L 345.804 154.821 L 343.804 154.821 L 343.804 152.821 Z M 345.804 152.821 L 347.804 152.821 L 347.804 154.821 L 345.804 154.821 L 345.804 152.821 Z M 349.804 152.821 L 351.804 152.821 L 351.804 154.821 L 349.804 154.821 L 349.804 152.821 Z M 351.804 152.821 L 353.804 152.821 L 353.804 154.821 L 351.804 154.821 L 351.804 152.821 Z M 359.804 152.821 L 361.804 152.821 L 361.804 154.821 L 359.804 154.821 L 359.804 152.821 Z M 361.804 152.821 L 363.804 152.821 L 363.804 154.821 L 361.804 154.821 L 361.804 152.821 Z M 369.804 152.821 L 371.804 152.821 L 371.804 154.821 L 369.804 154.821 L 369.804 152.821 Z M 375.804 152.821 L 377.804 152.821 L 377.804 154.821 L 375.804 154.821 L 375.804 152.821 Z M 387.804 152.821 L 389.804 152.821 L 389.804 154.821 L 387.804 154.821 L 387.804 152.821 Z M 333.804 154.821 L 335.804 154.821 L 335.804 156.821 L 333.804 156.821 L 333.804 154.821 Z M 335.804 154.821 L 337.804 154.821 L 337.804 156.821 L 335.804 156.821 L 335.804 154.821 Z M 337.804 154.821 L 339.804 154.821 L 339.804 156.821 L 337.804 156.821 L 337.804 154.821 Z M 341.804 154.821 L 343.804 154.821 L 343.804 156.821 L 341.804 156.821 L 341.804 154.821 Z M 347.804 154.821 L 349.804 154.821 L 349.804 156.821 L 347.804 156.821 L 347.804 154.821 Z M 349.804 154.821 L 351.804 154.821 L 351.804 156.821 L 349.804 156.821 L 349.804 154.821 Z M 355.804 154.821 L 357.804 154.821 L 357.804 156.821 L 355.804 156.821 L 355.804 154.821 Z M 357.804 154.821 L 359.804 154.821 L 359.804 156.821 L 357.804 156.821 L 357.804 154.821 Z M 359.804 154.821 L 361.804 154.821 L 361.804 156.821 L 359.804 156.821 L 359.804 154.821 Z M 371.804 154.821 L 373.804 154.821 L 373.804 156.821 L 371.804 156.821 L 371.804 154.821 Z M 375.804 154.821 L 377.804 154.821 L 377.804 156.821 L 375.804 156.821 L 375.804 154.821 Z M 379.804 154.821 L 381.804 154.821 L 381.804 156.821 L 379.804 156.821 L 379.804 154.821 Z M 381.804 154.821 L 383.804 154.821 L 383.804 156.821 L 381.804 156.821 L 381.804 154.821 Z M 391.804 154.821 L 393.804 154.821 L 393.804 156.821 L 391.804 156.821 L 391.804 154.821 Z M 395.804 154.821 L 397.804 154.821 L 397.804 156.821 L 395.804 156.821 L 395.804 154.821 Z M 333.804 156.821 L 335.804 156.821 L 335.804 158.821 L 333.804 158.821 L 333.804 156.821 Z M 343.804 156.821 L 345.804 156.821 L 345.804 158.821 L 343.804 158.821 L 343.804 156.821 Z M 345.804 156.821 L 347.804 156.821 L 347.804 158.821 L 345.804 158.821 L 345.804 156.821 Z M 347.804 156.821 L 349.804 156.821 L 349.804 158.821 L 347.804 158.821 L 347.804 156.821 Z M 351.804 156.821 L 353.804 156.821 L 353.804 158.821 L 351.804 158.821 L 351.804 156.821 Z M 353.804 156.821 L 355.804 156.821 L 355.804 158.821 L 353.804 158.821 L 353.804 156.821 Z M 355.804 156.821 L 357.804 156.821 L 357.804 158.821 L 355.804 158.821 L 355.804 156.821 Z M 361.804 156.821 L 363.804 156.821 L 363.804 158.821 L 361.804 158.821 L 361.804 156.821 Z M 367.804 156.821 L 369.804 156.821 L 369.804 158.821 L 367.804 158.821 L 367.804 156.821 Z M 379.804 156.821 L 381.804 156.821 L 381.804 158.821 L 379.804 158.821 L 379.804 156.821 Z M 381.804 156.821 L 383.804 156.821 L 383.804 158.821 L 381.804 158.821 L 381.804 156.821 Z M 383.804 156.821 L 385.804 156.821 L 385.804 158.821 L 383.804 158.821 L 383.804 156.821 Z M 387.804 156.821 L 389.804 156.821 L 389.804 158.821 L 387.804 158.821 L 387.804 156.821 Z M 389.804 156.821 L 391.804 156.821 L 391.804 158.821 L 389.804 158.821 L 389.804 156.821 Z M 393.804 156.821 L 395.804 156.821 L 395.804 158.821 L 393.804 158.821 L 393.804 156.821 Z M 395.804 156.821 L 397.804 156.821 L 397.804 158.821 L 395.804 158.821 L 395.804 156.821 Z M 331.804 158.821 L 333.804 158.821 L 333.804 160.821 L 331.804 160.821 L 331.804 158.821 Z M 333.804 158.821 L 335.804 158.821 L 335.804 160.821 L 333.804 160.821 L 333.804 158.821 Z M 335.804 158.821 L 337.804 158.821 L 337.804 160.821 L 335.804 160.821 L 335.804 158.821 Z M 339.804 158.821 L 341.804 158.821 L 341.804 160.821 L 339.804 160.821 L 339.804 158.821 Z M 345.804 158.821 L 347.804 158.821 L 347.804 160.821 L 345.804 160.821 L 345.804 158.821 Z M 353.804 158.821 L 355.804 158.821 L 355.804 160.821 L 353.804 160.821 L 353.804 158.821 Z M 361.804 158.821 L 363.804 158.821 L 363.804 160.821 L 361.804 160.821 L 361.804 158.821 Z M 367.804 158.821 L 369.804 158.821 L 369.804 160.821 L 367.804 160.821 L 367.804 158.821 Z M 369.804 158.821 L 371.804 158.821 L 371.804 160.821 L 369.804 160.821 L 369.804 158.821 Z M 371.804 158.821 L 373.804 158.821 L 373.804 160.821 L 371.804 160.821 L 371.804 158.821 Z M 373.804 158.821 L 375.804 158.821 L 375.804 160.821 L 373.804 160.821 L 373.804 158.821 Z M 375.804 158.821 L 377.804 158.821 L 377.804 160.821 L 375.804 160.821 L 375.804 158.821 Z M 383.804 158.821 L 385.804 158.821 L 385.804 160.821 L 383.804 160.821 L 383.804 158.821 Z M 387.804 158.821 L 389.804 158.821 L 389.804 160.821 L 387.804 160.821 L 387.804 158.821 Z M 393.804 158.821 L 395.804 158.821 L 395.804 160.821 L 393.804 160.821 L 393.804 158.821 Z M 395.804 158.821 L 397.804 158.821 L 397.804 160.821 L 395.804 160.821 L 395.804 158.821 Z M 331.804 160.821 L 333.804 160.821 L 333.804 162.821 L 331.804 162.821 L 331.804 160.821 Z M 335.804 160.821 L 337.804 160.821 L 337.804 162.821 L 335.804 162.821 L 335.804 160.821 Z M 339.804 160.821 L 341.804 160.821 L 341.804 162.821 L 339.804 162.821 L 339.804 160.821 Z M 343.804 160.821 L 345.804 160.821 L 345.804 162.821 L 343.804 162.821 L 343.804 160.821 Z M 349.804 160.821 L 351.804 160.821 L 351.804 162.821 L 349.804 162.821 L 349.804 160.821 Z M 351.804 160.821 L 353.804 160.821 L 353.804 162.821 L 351.804 162.821 L 351.804 160.821 Z M 355.804 160.821 L 357.804 160.821 L 357.804 162.821 L 355.804 162.821 L 355.804 160.821 Z M 357.804 160.821 L 359.804 160.821 L 359.804 162.821 L 357.804 162.821 L 357.804 160.821 Z M 359.804 160.821 L 361.804 160.821 L 361.804 162.821 L 359.804 162.821 L 359.804 160.821 Z M 361.804 160.821 L 363.804 160.821 L 363.804 162.821 L 361.804 162.821 L 361.804 160.821 Z M 369.804 160.821 L 371.804 160.821 L 371.804 162.821 L 369.804 162.821 L 369.804 160.821 Z M 371.804 160.821 L 373.804 160.821 L 373.804 162.821 L 371.804 162.821 L 371.804 160.821 Z M 373.804 160.821 L 375.804 160.821 L 375.804 162.821 L 373.804 162.821 L 373.804 160.821 Z M 377.804 160.821 L 379.804 160.821 L 379.804 162.821 L 377.804 162.821 L 377.804 160.821 Z M 379.804 160.821 L 381.804 160.821 L 381.804 162.821 L 379.804 162.821 L 379.804 160.821 Z M 381.804 160.821 L 383.804 160.821 L 383.804 162.821 L 381.804 162.821 L 381.804 160.821 Z M 387.804 160.821 L 389.804 160.821 L 389.804 162.821 L 387.804 162.821 L 387.804 160.821 Z M 395.804 160.821 L 397.804 160.821 L 397.804 162.821 L 395.804 162.821 L 395.804 160.821 Z M 337.804 162.821 L 339.804 162.821 L 339.804 164.821 L 337.804 164.821 L 337.804 162.821 Z M 341.804 162.821 L 343.804 162.821 L 343.804 164.821 L 341.804 164.821 L 341.804 162.821 Z M 347.804 162.821 L 349.804 162.821 L 349.804 164.821 L 347.804 164.821 L 347.804 162.821 Z M 349.804 162.821 L 351.804 162.821 L 351.804 164.821 L 349.804 164.821 L 349.804 162.821 Z M 351.804 162.821 L 353.804 162.821 L 353.804 164.821 L 351.804 164.821 L 351.804 162.821 Z M 353.804 162.821 L 355.804 162.821 L 355.804 164.821 L 353.804 164.821 L 353.804 162.821 Z M 357.804 162.821 L 359.804 162.821 L 359.804 164.821 L 357.804 164.821 L 357.804 162.821 Z M 363.804 162.821 L 365.804 162.821 L 365.804 164.821 L 363.804 164.821 L 363.804 162.821 Z M 369.804 162.821 L 371.804 162.821 L 371.804 164.821 L 369.804 164.821 L 369.804 162.821 Z M 371.804 162.821 L 373.804 162.821 L 373.804 164.821 L 371.804 164.821 L 371.804 162.821 Z M 375.804 162.821 L 377.804 162.821 L 377.804 164.821 L 375.804 164.821 L 375.804 162.821 Z M 377.804 162.821 L 379.804 162.821 L 379.804 164.821 L 377.804 164.821 L 377.804 162.821 Z M 383.804 162.821 L 385.804 162.821 L 385.804 164.821 L 383.804 164.821 L 383.804 162.821 Z M 387.804 162.821 L 389.804 162.821 L 389.804 164.821 L 387.804 164.821 L 387.804 162.821 Z M 391.804 162.821 L 393.804 162.821 L 393.804 164.821 L 391.804 164.821 L 391.804 162.821 Z M 393.804 162.821 L 395.804 162.821 L 395.804 164.821 L 393.804 164.821 L 393.804 162.821 Z M 395.804 162.821 L 397.804 162.821 L 397.804 164.821 L 395.804 164.821 L 395.804 162.821 Z M 333.804 164.821 L 335.804 164.821 L 335.804 166.821 L 333.804 166.821 L 333.804 164.821 Z M 335.804 164.821 L 337.804 164.821 L 337.804 166.821 L 335.804 166.821 L 335.804 164.821 Z M 337.804 164.821 L 339.804 164.821 L 339.804 166.821 L 337.804 166.821 L 337.804 164.821 Z M 339.804 164.821 L 341.804 164.821 L 341.804 166.821 L 339.804 166.821 L 339.804 164.821 Z M 341.804 164.821 L 343.804 164.821 L 343.804 166.821 L 341.804 166.821 L 341.804 164.821 Z M 343.804 164.821 L 345.804 164.821 L 345.804 166.821 L 343.804 166.821 L 343.804 164.821 Z M 353.804 164.821 L 355.804 164.821 L 355.804 166.821 L 353.804 166.821 L 353.804 164.821 Z M 357.804 164.821 L 359.804 164.821 L 359.804 166.821 L 357.804 166.821 L 357.804 164.821 Z M 361.804 164.821 L 363.804 164.821 L 363.804 166.821 L 361.804 166.821 L 361.804 164.821 Z M 363.804 164.821 L 365.804 164.821 L 365.804 166.821 L 363.804 166.821 L 363.804 164.821 Z M 365.804 164.821 L 367.804 164.821 L 367.804 166.821 L 365.804 166.821 L 365.804 164.821 Z M 371.804 164.821 L 373.804 164.821 L 373.804 166.821 L 371.804 166.821 L 371.804 164.821 Z M 377.804 164.821 L 379.804 164.821 L 379.804 166.821 L 377.804 166.821 L 377.804 164.821 Z M 379.804 164.821 L 381.804 164.821 L 381.804 166.821 L 379.804 166.821 L 379.804 164.821 Z M 331.804 166.821 L 333.804 166.821 L 333.804 168.821 L 331.804 168.821 L 331.804 166.821 Z M 333.804 166.821 L 335.804 166.821 L 335.804 168.821 L 333.804 168.821 L 333.804 166.821 Z M 335.804 166.821 L 337.804 166.821 L 337.804 168.821 L 335.804 168.821 L 335.804 166.821 Z M 341.804 166.821 L 343.804 166.821 L 343.804 168.821 L 341.804 168.821 L 341.804 166.821 Z M 345.804 166.821 L 347.804 166.821 L 347.804 168.821 L 345.804 168.821 L 345.804 166.821 Z M 347.804 166.821 L 349.804 166.821 L 349.804 168.821 L 347.804 168.821 L 347.804 166.821 Z M 351.804 166.821 L 353.804 166.821 L 353.804 168.821 L 351.804 168.821 L 351.804 166.821 Z M 355.804 166.821 L 357.804 166.821 L 357.804 168.821 L 355.804 168.821 L 355.804 166.821 Z M 357.804 166.821 L 359.804 166.821 L 359.804 168.821 L 357.804 168.821 L 357.804 166.821 Z M 361.804 166.821 L 363.804 166.821 L 363.804 168.821 L 361.804 168.821 L 361.804 166.821 Z M 369.804 166.821 L 371.804 166.821 L 371.804 168.821 L 369.804 168.821 L 369.804 166.821 Z M 377.804 166.821 L 379.804 166.821 L 379.804 168.821 L 377.804 168.821 L 377.804 166.821 Z M 379.804 166.821 L 381.804 166.821 L 381.804 168.821 L 379.804 168.821 L 379.804 166.821 Z M 381.804 166.821 L 383.804 166.821 L 383.804 168.821 L 381.804 168.821 L 381.804 166.821 Z M 387.804 166.821 L 389.804 166.821 L 389.804 168.821 L 387.804 168.821 L 387.804 166.821 Z M 389.804 166.821 L 391.804 166.821 L 391.804 168.821 L 389.804 168.821 L 389.804 166.821 Z M 393.804 166.821 L 395.804 166.821 L 395.804 168.821 L 393.804 168.821 L 393.804 166.821 Z M 331.804 168.821 L 333.804 168.821 L 333.804 170.821 L 331.804 170.821 L 331.804 168.821 Z M 341.804 168.821 L 343.804 168.821 L 343.804 170.821 L 341.804 170.821 L 341.804 168.821 Z M 343.804 168.821 L 345.804 168.821 L 345.804 170.821 L 343.804 170.821 L 343.804 168.821 Z M 345.804 168.821 L 347.804 168.821 L 347.804 170.821 L 345.804 170.821 L 345.804 168.821 Z M 347.804 168.821 L 349.804 168.821 L 349.804 170.821 L 347.804 170.821 L 347.804 168.821 Z M 351.804 168.821 L 353.804 168.821 L 353.804 170.821 L 351.804 170.821 L 351.804 168.821 Z M 353.804 168.821 L 355.804 168.821 L 355.804 170.821 L 353.804 170.821 L 353.804 168.821 Z M 357.804 168.821 L 359.804 168.821 L 359.804 170.821 L 357.804 170.821 L 357.804 168.821 Z M 361.804 168.821 L 363.804 168.821 L 363.804 170.821 L 361.804 170.821 L 361.804 168.821 Z M 375.804 168.821 L 377.804 168.821 L 377.804 170.821 L 375.804 170.821 L 375.804 168.821 Z M 377.804 168.821 L 379.804 168.821 L 379.804 170.821 L 377.804 170.821 L 377.804 168.821 Z M 379.804 168.821 L 381.804 168.821 L 381.804 170.821 L 379.804 170.821 L 379.804 168.821 Z M 381.804 168.821 L 383.804 168.821 L 383.804 170.821 L 381.804 170.821 L 381.804 168.821 Z M 383.804 168.821 L 385.804 168.821 L 385.804 170.821 L 383.804 170.821 L 383.804 168.821 Z M 393.804 168.821 L 395.804 168.821 L 395.804 170.821 L 393.804 170.821 L 393.804 168.821 Z M 395.804 168.821 L 397.804 168.821 L 397.804 170.821 L 395.804 170.821 L 395.804 168.821 Z M 331.804 170.821 L 333.804 170.821 L 333.804 172.821 L 331.804 172.821 L 331.804 170.821 Z M 335.804 170.821 L 337.804 170.821 L 337.804 172.821 L 335.804 172.821 L 335.804 170.821 Z M 337.804 170.821 L 339.804 170.821 L 339.804 172.821 L 337.804 172.821 L 337.804 170.821 Z M 339.804 170.821 L 341.804 170.821 L 341.804 172.821 L 339.804 172.821 L 339.804 170.821 Z M 345.804 170.821 L 347.804 170.821 L 347.804 172.821 L 345.804 172.821 L 345.804 170.821 Z M 347.804 170.821 L 349.804 170.821 L 349.804 172.821 L 347.804 172.821 L 347.804 170.821 Z M 351.804 170.821 L 353.804 170.821 L 353.804 172.821 L 351.804 172.821 L 351.804 170.821 Z M 353.804 170.821 L 355.804 170.821 L 355.804 172.821 L 353.804 172.821 L 353.804 170.821 Z M 355.804 170.821 L 357.804 170.821 L 357.804 172.821 L 355.804 172.821 L 355.804 170.821 Z M 357.804 170.821 L 359.804 170.821 L 359.804 172.821 L 357.804 172.821 L 357.804 170.821 Z M 363.804 170.821 L 365.804 170.821 L 365.804 172.821 L 363.804 172.821 L 363.804 170.821 Z M 365.804 170.821 L 367.804 170.821 L 367.804 172.821 L 365.804 172.821 L 365.804 170.821 Z M 371.804 170.821 L 373.804 170.821 L 373.804 172.821 L 371.804 172.821 L 371.804 170.821 Z M 379.804 170.821 L 381.804 170.821 L 381.804 172.821 L 379.804 172.821 L 379.804 170.821 Z M 387.804 170.821 L 389.804 170.821 L 389.804 172.821 L 387.804 172.821 L 387.804 170.821 Z M 391.804 170.821 L 393.804 170.821 L 393.804 172.821 L 391.804 172.821 L 391.804 170.821 Z M 331.804 172.821 L 333.804 172.821 L 333.804 174.821 L 331.804 174.821 L 331.804 172.821 Z M 333.804 172.821 L 335.804 172.821 L 335.804 174.821 L 333.804 174.821 L 333.804 172.821 Z M 335.804 172.821 L 337.804 172.821 L 337.804 174.821 L 335.804 174.821 L 335.804 172.821 Z M 337.804 172.821 L 339.804 172.821 L 339.804 174.821 L 337.804 174.821 L 337.804 172.821 Z M 341.804 172.821 L 343.804 172.821 L 343.804 174.821 L 341.804 174.821 L 341.804 172.821 Z M 343.804 172.821 L 345.804 172.821 L 345.804 174.821 L 343.804 174.821 L 343.804 172.821 Z M 345.804 172.821 L 347.804 172.821 L 347.804 174.821 L 345.804 174.821 L 345.804 172.821 Z M 347.804 172.821 L 349.804 172.821 L 349.804 174.821 L 347.804 174.821 L 347.804 172.821 Z M 351.804 172.821 L 353.804 172.821 L 353.804 174.821 L 351.804 174.821 L 351.804 172.821 Z M 353.804 172.821 L 355.804 172.821 L 355.804 174.821 L 353.804 174.821 L 353.804 172.821 Z M 355.804 172.821 L 357.804 172.821 L 357.804 174.821 L 355.804 174.821 L 355.804 172.821 Z M 357.804 172.821 L 359.804 172.821 L 359.804 174.821 L 357.804 174.821 L 357.804 172.821 Z M 363.804 172.821 L 365.804 172.821 L 365.804 174.821 L 363.804 174.821 L 363.804 172.821 Z M 369.804 172.821 L 371.804 172.821 L 371.804 174.821 L 369.804 174.821 L 369.804 172.821 Z M 371.804 172.821 L 373.804 172.821 L 373.804 174.821 L 371.804 174.821 L 371.804 172.821 Z M 377.804 172.821 L 379.804 172.821 L 379.804 174.821 L 377.804 174.821 L 377.804 172.821 Z M 379.804 172.821 L 381.804 172.821 L 381.804 174.821 L 379.804 174.821 L 379.804 172.821 Z M 381.804 172.821 L 383.804 172.821 L 383.804 174.821 L 381.804 174.821 L 381.804 172.821 Z M 383.804 172.821 L 385.804 172.821 L 385.804 174.821 L 383.804 174.821 L 383.804 172.821 Z M 385.804 172.821 L 387.804 172.821 L 387.804 174.821 L 385.804 174.821 L 385.804 172.821 Z M 387.804 172.821 L 389.804 172.821 L 389.804 174.821 L 387.804 174.821 L 387.804 172.821 Z M 389.804 172.821 L 391.804 172.821 L 391.804 174.821 L 389.804 174.821 L 389.804 172.821 Z M 393.804 172.821 L 395.804 172.821 L 395.804 174.821 L 393.804 174.821 L 393.804 172.821 Z M 347.804 174.821 L 349.804 174.821 L 349.804 176.821 L 347.804 176.821 L 347.804 174.821 Z M 349.804 174.821 L 351.804 174.821 L 351.804 176.821 L 349.804 176.821 L 349.804 174.821 Z M 351.804 174.821 L 353.804 174.821 L 353.804 176.821 L 351.804 176.821 L 351.804 174.821 Z M 357.804 174.821 L 359.804 174.821 L 359.804 176.821 L 357.804 176.821 L 357.804 174.821 Z M 359.804 174.821 L 361.804 174.821 L 361.804 176.821 L 359.804 176.821 L 359.804 174.821 Z M 361.804 174.821 L 363.804 174.821 L 363.804 176.821 L 361.804 176.821 L 361.804 174.821 Z M 363.804 174.821 L 365.804 174.821 L 365.804 176.821 L 363.804 176.821 L 363.804 174.821 Z M 365.804 174.821 L 367.804 174.821 L 367.804 176.821 L 365.804 176.821 L 365.804 174.821 Z M 367.804 174.821 L 369.804 174.821 L 369.804 176.821 L 367.804 176.821 L 367.804 174.821 Z M 373.804 174.821 L 375.804 174.821 L 375.804 176.821 L 373.804 176.821 L 373.804 174.821 Z M 379.804 174.821 L 381.804 174.821 L 381.804 176.821 L 379.804 176.821 L 379.804 174.821 Z M 387.804 174.821 L 389.804 174.821 L 389.804 176.821 L 387.804 176.821 L 387.804 174.821 Z M 389.804 174.821 L 391.804 174.821 L 391.804 176.821 L 389.804 176.821 L 389.804 174.821 Z M 391.804 174.821 L 393.804 174.821 L 393.804 176.821 L 391.804 176.821 L 391.804 174.821 Z M 393.804 174.821 L 395.804 174.821 L 395.804 176.821 L 393.804 176.821 L 393.804 174.821 Z M 331.804 176.821 L 333.804 176.821 L 333.804 178.821 L 331.804 178.821 L 331.804 176.821 Z M 333.804 176.821 L 335.804 176.821 L 335.804 178.821 L 333.804 178.821 L 333.804 176.821 Z M 335.804 176.821 L 337.804 176.821 L 337.804 178.821 L 335.804 178.821 L 335.804 176.821 Z M 337.804 176.821 L 339.804 176.821 L 339.804 178.821 L 337.804 178.821 L 337.804 176.821 Z M 339.804 176.821 L 341.804 176.821 L 341.804 178.821 L 339.804 178.821 L 339.804 176.821 Z M 341.804 176.821 L 343.804 176.821 L 343.804 178.821 L 341.804 178.821 L 341.804 176.821 Z M 343.804 176.821 L 345.804 176.821 L 345.804 178.821 L 343.804 178.821 L 343.804 176.821 Z M 353.804 176.821 L 355.804 176.821 L 355.804 178.821 L 353.804 178.821 L 353.804 176.821 Z M 355.804 176.821 L 357.804 176.821 L 357.804 178.821 L 355.804 178.821 L 355.804 176.821 Z M 357.804 176.821 L 359.804 176.821 L 359.804 178.821 L 357.804 178.821 L 357.804 176.821 Z M 361.804 176.821 L 363.804 176.821 L 363.804 178.821 L 361.804 178.821 L 361.804 176.821 Z M 365.804 176.821 L 367.804 176.821 L 367.804 178.821 L 365.804 178.821 L 365.804 176.821 Z M 369.804 176.821 L 371.804 176.821 L 371.804 178.821 L 369.804 178.821 L 369.804 176.821 Z M 371.804 176.821 L 373.804 176.821 L 373.804 178.821 L 371.804 178.821 L 371.804 176.821 Z M 377.804 176.821 L 379.804 176.821 L 379.804 178.821 L 377.804 178.821 L 377.804 176.821 Z M 379.804 176.821 L 381.804 176.821 L 381.804 178.821 L 379.804 178.821 L 379.804 176.821 Z M 383.804 176.821 L 385.804 176.821 L 385.804 178.821 L 383.804 178.821 L 383.804 176.821 Z M 387.804 176.821 L 389.804 176.821 L 389.804 178.821 L 387.804 178.821 L 387.804 176.821 Z M 391.804 176.821 L 393.804 176.821 L 393.804 178.821 L 391.804 178.821 L 391.804 176.821 Z M 331.804 178.821 L 333.804 178.821 L 333.804 180.821 L 331.804 180.821 L 331.804 178.821 Z M 343.804 178.821 L 345.804 178.821 L 345.804 180.821 L 343.804 180.821 L 343.804 178.821 Z M 353.804 178.821 L 355.804 178.821 L 355.804 180.821 L 353.804 180.821 L 353.804 178.821 Z M 361.804 178.821 L 363.804 178.821 L 363.804 180.821 L 361.804 180.821 L 361.804 178.821 Z M 363.804 178.821 L 365.804 178.821 L 365.804 180.821 L 363.804 180.821 L 363.804 178.821 Z M 377.804 178.821 L 379.804 178.821 L 379.804 180.821 L 377.804 180.821 L 377.804 178.821 Z M 379.804 178.821 L 381.804 178.821 L 381.804 180.821 L 379.804 180.821 L 379.804 178.821 Z M 387.804 178.821 L 389.804 178.821 L 389.804 180.821 L 387.804 180.821 L 387.804 178.821 Z M 389.804 178.821 L 391.804 178.821 L 391.804 180.821 L 389.804 180.821 L 389.804 178.821 Z M 391.804 178.821 L 393.804 178.821 L 393.804 180.821 L 391.804 180.821 L 391.804 178.821 Z M 331.804 180.821 L 333.804 180.821 L 333.804 182.821 L 331.804 182.821 L 331.804 180.821 Z M 335.804 180.821 L 337.804 180.821 L 337.804 182.821 L 335.804 182.821 L 335.804 180.821 Z M 337.804 180.821 L 339.804 180.821 L 339.804 182.821 L 337.804 182.821 L 337.804 180.821 Z M 339.804 180.821 L 341.804 180.821 L 341.804 182.821 L 339.804 182.821 L 339.804 180.821 Z M 343.804 180.821 L 345.804 180.821 L 345.804 182.821 L 343.804 182.821 L 343.804 180.821 Z M 347.804 180.821 L 349.804 180.821 L 349.804 182.821 L 347.804 182.821 L 347.804 180.821 Z M 359.804 180.821 L 361.804 180.821 L 361.804 182.821 L 359.804 182.821 L 359.804 180.821 Z M 361.804 180.821 L 363.804 180.821 L 363.804 182.821 L 361.804 182.821 L 361.804 180.821 Z M 363.804 180.821 L 365.804 180.821 L 365.804 182.821 L 363.804 182.821 L 363.804 180.821 Z M 369.804 180.821 L 371.804 180.821 L 371.804 182.821 L 369.804 182.821 L 369.804 180.821 Z M 371.804 180.821 L 373.804 180.821 L 373.804 182.821 L 371.804 182.821 L 371.804 180.821 Z M 375.804 180.821 L 377.804 180.821 L 377.804 182.821 L 375.804 182.821 L 375.804 180.821 Z M 377.804 180.821 L 379.804 180.821 L 379.804 182.821 L 377.804 182.821 L 377.804 180.821 Z M 379.804 180.821 L 381.804 180.821 L 381.804 182.821 L 379.804 182.821 L 379.804 180.821 Z M 381.804 180.821 L 383.804 180.821 L 383.804 182.821 L 381.804 182.821 L 381.804 180.821 Z M 383.804 180.821 L 385.804 180.821 L 385.804 182.821 L 383.804 182.821 L 383.804 180.821 Z M 385.804 180.821 L 387.804 180.821 L 387.804 182.821 L 385.804 182.821 L 385.804 180.821 Z M 387.804 180.821 L 389.804 180.821 L 389.804 182.821 L 387.804 182.821 L 387.804 180.821 Z M 389.804 180.821 L 391.804 180.821 L 391.804 182.821 L 389.804 182.821 L 389.804 180.821 Z M 393.804 180.821 L 395.804 180.821 L 395.804 182.821 L 393.804 182.821 L 393.804 180.821 Z M 331.804 182.821 L 333.804 182.821 L 333.804 184.821 L 331.804 184.821 L 331.804 182.821 Z M 335.804 182.821 L 337.804 182.821 L 337.804 184.821 L 335.804 184.821 L 335.804 182.821 Z M 337.804 182.821 L 339.804 182.821 L 339.804 184.821 L 337.804 184.821 L 337.804 182.821 Z M 339.804 182.821 L 341.804 182.821 L 341.804 184.821 L 339.804 184.821 L 339.804 182.821 Z M 343.804 182.821 L 345.804 182.821 L 345.804 184.821 L 343.804 184.821 L 343.804 182.821 Z M 347.804 182.821 L 349.804 182.821 L 349.804 184.821 L 347.804 184.821 L 347.804 182.821 Z M 349.804 182.821 L 351.804 182.821 L 351.804 184.821 L 349.804 184.821 L 349.804 182.821 Z M 353.804 182.821 L 355.804 182.821 L 355.804 184.821 L 353.804 184.821 L 353.804 182.821 Z M 355.804 182.821 L 357.804 182.821 L 357.804 184.821 L 355.804 184.821 L 355.804 182.821 Z M 357.804 182.821 L 359.804 182.821 L 359.804 184.821 L 357.804 184.821 L 357.804 182.821 Z M 359.804 182.821 L 361.804 182.821 L 361.804 184.821 L 359.804 184.821 L 359.804 182.821 Z M 361.804 182.821 L 363.804 182.821 L 363.804 184.821 L 361.804 184.821 L 361.804 182.821 Z M 365.804 182.821 L 367.804 182.821 L 367.804 184.821 L 365.804 184.821 L 365.804 182.821 Z M 369.804 182.821 L 371.804 182.821 L 371.804 184.821 L 369.804 184.821 L 369.804 182.821 Z M 379.804 182.821 L 381.804 182.821 L 381.804 184.821 L 379.804 184.821 L 379.804 182.821 Z M 381.804 182.821 L 383.804 182.821 L 383.804 184.821 L 381.804 184.821 L 381.804 182.821 Z M 385.804 182.821 L 387.804 182.821 L 387.804 184.821 L 385.804 184.821 L 385.804 182.821 Z M 389.804 182.821 L 391.804 182.821 L 391.804 184.821 L 389.804 184.821 L 389.804 182.821 Z M 393.804 182.821 L 395.804 182.821 L 395.804 184.821 L 393.804 184.821 L 393.804 182.821 Z M 395.804 182.821 L 397.804 182.821 L 397.804 184.821 L 395.804 184.821 L 395.804 182.821 Z M 331.804 184.821 L 333.804 184.821 L 333.804 186.821 L 331.804 186.821 L 331.804 184.821 Z M 335.804 184.821 L 337.804 184.821 L 337.804 186.821 L 335.804 186.821 L 335.804 184.821 Z M 337.804 184.821 L 339.804 184.821 L 339.804 186.821 L 337.804 186.821 L 337.804 184.821 Z M 339.804 184.821 L 341.804 184.821 L 341.804 186.821 L 339.804 186.821 L 339.804 184.821 Z M 343.804 184.821 L 345.804 184.821 L 345.804 186.821 L 343.804 186.821 L 343.804 184.821 Z M 349.804 184.821 L 351.804 184.821 L 351.804 186.821 L 349.804 186.821 L 349.804 184.821 Z M 351.804 184.821 L 353.804 184.821 L 353.804 186.821 L 351.804 186.821 L 351.804 184.821 Z M 353.804 184.821 L 355.804 184.821 L 355.804 186.821 L 353.804 186.821 L 353.804 184.821 Z M 361.804 184.821 L 363.804 184.821 L 363.804 186.821 L 361.804 186.821 L 361.804 184.821 Z M 367.804 184.821 L 369.804 184.821 L 369.804 186.821 L 367.804 186.821 L 367.804 184.821 Z M 369.804 184.821 L 371.804 184.821 L 371.804 186.821 L 369.804 186.821 L 369.804 184.821 Z M 375.804 184.821 L 377.804 184.821 L 377.804 186.821 L 375.804 186.821 L 375.804 184.821 Z M 379.804 184.821 L 381.804 184.821 L 381.804 186.821 L 379.804 186.821 L 379.804 184.821 Z M 381.804 184.821 L 383.804 184.821 L 383.804 186.821 L 381.804 186.821 L 381.804 184.821 Z M 385.804 184.821 L 387.804 184.821 L 387.804 186.821 L 385.804 186.821 L 385.804 184.821 Z M 387.804 184.821 L 389.804 184.821 L 389.804 186.821 L 387.804 186.821 L 387.804 184.821 Z M 389.804 184.821 L 391.804 184.821 L 391.804 186.821 L 389.804 186.821 L 389.804 184.821 Z M 393.804 184.821 L 395.804 184.821 L 395.804 186.821 L 393.804 186.821 L 393.804 184.821 Z M 395.804 184.821 L 397.804 184.821 L 397.804 186.821 L 395.804 186.821 L 395.804 184.821 Z M 331.804 186.821 L 333.804 186.821 L 333.804 188.821 L 331.804 188.821 L 331.804 186.821 Z M 343.804 186.821 L 345.804 186.821 L 345.804 188.821 L 343.804 188.821 L 343.804 186.821 Z M 347.804 186.821 L 349.804 186.821 L 349.804 188.821 L 347.804 188.821 L 347.804 186.821 Z M 349.804 186.821 L 351.804 186.821 L 351.804 188.821 L 349.804 188.821 L 349.804 186.821 Z M 355.804 186.821 L 357.804 186.821 L 357.804 188.821 L 355.804 188.821 L 355.804 186.821 Z M 359.804 186.821 L 361.804 186.821 L 361.804 188.821 L 359.804 188.821 L 359.804 186.821 Z M 361.804 186.821 L 363.804 186.821 L 363.804 188.821 L 361.804 188.821 L 361.804 186.821 Z M 367.804 186.821 L 369.804 186.821 L 369.804 188.821 L 367.804 188.821 L 367.804 186.821 Z M 371.804 186.821 L 373.804 186.821 L 373.804 188.821 L 371.804 188.821 L 371.804 186.821 Z M 377.804 186.821 L 379.804 186.821 L 379.804 188.821 L 377.804 188.821 L 377.804 186.821 Z M 381.804 186.821 L 383.804 186.821 L 383.804 188.821 L 381.804 188.821 L 381.804 186.821 Z M 389.804 186.821 L 391.804 186.821 L 391.804 188.821 L 389.804 188.821 L 389.804 186.821 Z M 391.804 186.821 L 393.804 186.821 L 393.804 188.821 L 391.804 188.821 L 391.804 186.821 Z M 393.804 186.821 L 395.804 186.821 L 395.804 188.821 L 393.804 188.821 L 393.804 186.821 Z M 395.804 186.821 L 397.804 186.821 L 397.804 188.821 L 395.804 188.821 L 395.804 186.821 Z M 331.804 188.821 L 333.804 188.821 L 333.804 190.821 L 331.804 190.821 L 331.804 188.821 Z M 333.804 188.821 L 335.804 188.821 L 335.804 190.821 L 333.804 190.821 L 333.804 188.821 Z M 335.804 188.821 L 337.804 188.821 L 337.804 190.821 L 335.804 190.821 L 335.804 188.821 Z M 337.804 188.821 L 339.804 188.821 L 339.804 190.821 L 337.804 190.821 L 337.804 188.821 Z M 339.804 188.821 L 341.804 188.821 L 341.804 190.821 L 339.804 190.821 L 339.804 188.821 Z M 341.804 188.821 L 343.804 188.821 L 343.804 190.821 L 341.804 190.821 L 341.804 188.821 Z M 343.804 188.821 L 345.804 188.821 L 345.804 190.821 L 343.804 190.821 L 343.804 188.821 Z M 347.804 188.821 L 349.804 188.821 L 349.804 190.821 L 347.804 190.821 L 347.804 188.821 Z M 351.804 188.821 L 353.804 188.821 L 353.804 190.821 L 351.804 190.821 L 351.804 188.821 Z M 355.804 188.821 L 357.804 188.821 L 357.804 190.821 L 355.804 190.821 L 355.804 188.821 Z M 357.804 188.821 L 359.804 188.821 L 359.804 190.821 L 357.804 190.821 L 357.804 188.821 Z M 359.804 188.821 L 361.804 188.821 L 361.804 190.821 L 359.804 190.821 L 359.804 188.821 Z M 363.804 188.821 L 365.804 188.821 L 365.804 190.821 L 363.804 190.821 L 363.804 188.821 Z M 365.804 188.821 L 367.804 188.821 L 367.804 190.821 L 365.804 190.821 L 365.804 188.821 Z M 377.804 188.821 L 379.804 188.821 L 379.804 190.821 L 377.804 190.821 L 377.804 188.821 Z M 379.804 188.821 L 381.804 188.821 L 381.804 190.821 L 379.804 190.821 L 379.804 188.821 Z M 381.804 188.821 L 383.804 188.821 L 383.804 190.821 L 381.804 190.821 L 381.804 188.821 Z M 385.804 188.821 L 387.804 188.821 L 387.804 190.821 L 385.804 190.821 L 385.804 188.821 Z" stroke="transparent" fill="black"/>
</svg>