<?xml version="1.0" encoding="utf-8"?>
<svg viewBox="28.599 121.756 340.673 156.03" width="340.673" height="156.03" xmlns="http://www.w3.org/2000/svg">
  <rect x="28.599" y="186.11" width="17.318" height="59.218" style="fill: rgb(255, 64, 0);" transform="matrix(0.9999999999999999, 0, 0, 0.9999999999999999, 0, 0)"/>
  <rect x="45.917" y="186.11" width="277.252" height="91.676" style="fill: rgb(255, 38, 0); fill-opacity: 0.9;" transform="matrix(0.9999999999999999, 0, 0, 0.9999999999999999, 0, 0)"/>
  <rect x="45.917" width="229.886" height="123.572" style="fill-opacity: 0.9; fill: rgb(255, 89, 25);" y="121.756" transform="matrix(0.9999999999999999, 0, 0, 0.9999999999999999, 0, 0)"/>
  <rect x="45.917" y="162.218" width="323.355" height="83.11" style="fill: rgb(255, 115, 0); fill-opacity: 0.9;" transform="matrix(0.9999999999999999, 0, 0, 0.9999999999999999, 0, 0)"/>
  <rect x="45.917" y="162.218" width="229.886" height="83.11" style="fill-opacity: 0.9; fill: rgb(255, 89, 0);" transform="matrix(0.9999999999999999, 0, 0, 0.9999999999999999, 0, 0)"/>
  <rect x="45.917" y="186.11" width="277.252" height="59.218" style="fill-opacity: 0.9; fill: rgb(255, 0, 25);" transform="matrix(0.9999999999999999, 0, 0, 0.9999999999999999, 0, 0)"/>
  <text style="fill: rgb(51, 51, 51); font-family: Calibri; font-size: 17.1px; white-space: pre;" x="59.143" y="228.991" transform="matrix(0.9999999999999999, 0, 0, 0.9999999999999999, 0, 0)">BAE SYSTEMS Radar Work Experience</text>
</svg>
