<?xml version="1.0" encoding="utf-8"?>
<svg viewBox="12.0153 7.3692 381.9014 175.737" width="381.9014" height="175.737" xmlns="http://www.w3.org/2000/svg">
  <g transform="matrix(1, 0, 0, 1, 4.630535125732429, -0.4538010358810425)">
    <path style="font-size:medium;font-style:normal;font-variant:normal;font-weight:normal;font-stretch:normal;text-indent:0;text-align:start;text-decoration:none;line-height:normal;letter-spacing:normal;word-spacing:normal;text-transform:none;direction:ltr;block-progression:tb;writing-mode:lr-tb;text-anchor:start;fill:#000000;fill-opacity:1;stroke:none;stroke-width:3;marker:none;visibility:visible;display:inline;overflow:visible;enable-background:accumulate;font-family:Bitstream Vera Sans;-inkscape-font-specification:Bitstream Vera Sans" d="M 211.17899,84.89286 L 211.17899,86.32143 L 211.17899,123.46429 L 211.17899,124.89286 L 212.60756,124.89286 L 231.65518,124.89286 C 242.92309,124.89286 251.65518,115.89281 251.65518,104.89286 C 251.65518,93.89291 242.92309,84.89286 231.65518,84.89286 C 231.65518,84.89286 231.65518,84.89286 212.60756,84.89286 L 211.17899,84.89286 z M 214.03613,87.75 C 222.01325,87.75 227.09736,87.75 229.27423,87.75 C 230.4647,87.75 231.05994,87.75 231.35756,87.75 C 231.50637,87.75 231.58822,87.75 231.62542,87.75 C 231.64402,87.75 231.65053,87.75 231.65518,87.75 C 241.41584,87.75 248.32185,95.38996 248.32185,104.89286 C 248.32185,114.39576 240.93965,122.03572 231.17899,122.03572 L 214.03613,122.03572 L 214.03613,87.75 z"/>
    <path style="font-size:medium;font-style:normal;font-variant:normal;font-weight:normal;font-stretch:normal;text-indent:0;text-align:start;text-decoration:none;line-height:normal;letter-spacing:normal;word-spacing:normal;text-transform:none;direction:ltr;block-progression:tb;writing-mode:lr-tb;text-anchor:start;fill:#000000;fill-opacity:1;stroke:none;stroke-width:3;marker:none;visibility:visible;display:inline;overflow:visible;enable-background:accumulate;font-family:Bitstream Vera Sans;-inkscape-font-specification:Bitstream Vera Sans" d="M 100.175 134.116 L 100.175 135.545 L 100.175 172.688 L 100.175 174.116 L 101.604 174.116 L 120.651 174.116 C 131.919 174.116 140.651 165.116 140.651 154.116 C 140.651 143.116 131.919 134.116 120.651 134.116 C 120.651 134.116 120.651 134.116 101.604 134.116 L 100.175 134.116 Z M 103.032 136.973 C 111.009 136.973 116.093 136.973 118.27 136.973 C 119.461 136.973 120.056 136.973 120.354 136.973 C 120.502 136.973 120.584 136.973 120.621 136.973 C 120.64 136.973 120.647 136.973 120.651 136.973 C 130.412 136.973 137.318 144.613 137.318 154.116 C 137.318 163.619 129.936 171.259 120.175 171.259 L 103.032 171.259 L 103.032 136.973 Z"/>
    <g transform="translate(74.067383,6.3621826)">
      <path d="M 30.96875,18.637817 L -35.03125,18.637817" style="fill:none;stroke:#000000;stroke-width:1.99999988;stroke-linecap:butt;stroke-linejoin:miter;stroke-opacity:1"/>
      <path d="M 30.96875,38.637817 L -35.03125,38.637817" style="fill:none;stroke:#000000;stroke-width:1.99999976;stroke-linecap:butt;stroke-linejoin:miter;stroke-opacity:1"/>
      <g transform="translate(26.46875,-35.862183)">
        <path d="M -2.25,81.500005 C -3.847374,84.144405 -4.5,84.500005 -4.5,84.500005 L -8.15625,84.500005 L -6.15625,82.062505 C -6.15625,82.062505 -0.5,75.062451 -0.5,64.5 C -0.5,53.937549 -6.15625,46.9375 -6.15625,46.9375 L -8.15625,44.5 L -4.5,44.5 C -3.71875,45.4375 -3.078125,46.15625 -2.28125,47.5 C -0.408531,50.599815 2.5,56.526646 2.5,64.5 C 2.5,72.45065 -0.396697,78.379425 -2.25,81.500005 z" style="fill:#000000;fill-opacity:1;fill-rule:evenodd;stroke:none;stroke-width:3;stroke-linecap:butt;stroke-linejoin:miter;stroke-opacity:1"/>
        <path d="M -2.40625,44.5 L -0.40625,46.9375 C -0.40625,46.9375 5.25,53.937549 5.25,64.5 C 5.25,75.062451 -0.40625,82.0625 -0.40625,82.0625 L -2.40625,84.5 L 0.75,84.5 L 14.75,84.5 C 17.158076,84.500001 22.439699,84.524514 28.375,82.09375 C 34.310301,79.662986 40.911536,74.750484 46.0625,65.21875 L 44.75,64.5 L 46.0625,63.78125 C 35.759387,44.71559 19.506574,44.5 14.75,44.5 L 0.75,44.5 L -2.40625,44.5 z M 3.46875,47.5 L 14.75,47.5 C 19.434173,47.5 33.03685,47.369793 42.71875,64.5 C 37.951964,72.929075 32.197469,77.18391 27,79.3125 C 21.639339,81.507924 17.158075,81.500001 14.75,81.5 L 3.5,81.5 C 5.3735884,78.391566 8.25,72.45065 8.25,64.5 C 8.25,56.526646 5.3414686,50.599815 3.46875,47.5 z" style="fill:#000000;fill-opacity:1;fill-rule:evenodd;stroke:none;stroke-width:3;stroke-linecap:butt;stroke-linejoin:miter;stroke-opacity:1"/>
      </g>
      <g transform="translate(137.25,-15.862183)">
        <path d="M -2.25,81.500005 C -3.847374,84.144405 -4.5,84.500005 -4.5,84.500005 L -8.15625,84.500005 L -6.15625,82.062505 C -6.15625,82.062505 -0.5,75.062451 -0.5,64.5 C -0.5,53.937549 -6.15625,46.9375 -6.15625,46.9375 L -8.15625,44.5 L -4.5,44.5 C -3.71875,45.4375 -3.078125,46.15625 -2.28125,47.5 C -0.408531,50.599815 2.5,56.526646 2.5,64.5 C 2.5,72.45065 -0.396697,78.379425 -2.25,81.500005 z" style="fill:#000000;fill-opacity:1;fill-rule:evenodd;stroke:none;stroke-width:3;stroke-linecap:butt;stroke-linejoin:miter;stroke-opacity:1"/>
        <path d="M -2.40625,44.5 L -0.40625,46.9375 C -0.40625,46.9375 5.25,53.937549 5.25,64.5 C 5.25,75.062451 -0.40625,82.0625 -0.40625,82.0625 L -2.40625,84.5 L 0.75,84.5 L 14.75,84.5 C 17.158076,84.500001 22.439699,84.524514 28.375,82.09375 C 34.310301,79.662986 40.911536,74.750484 46.0625,65.21875 L 44.75,64.5 L 46.0625,63.78125 C 35.759387,44.71559 19.506574,44.5 14.75,44.5 L 0.75,44.5 L -2.40625,44.5 z M 3.46875,47.5 L 14.75,47.5 C 19.434173,47.5 33.03685,47.369793 42.71875,64.5 C 37.951964,72.929075 32.197469,77.18391 27,79.3125 C 21.639339,81.507924 17.158075,81.500001 14.75,81.5 L 3.5,81.5 C 5.3735884,78.391566 8.25,72.45065 8.25,64.5 C 8.25,56.526646 5.3414686,50.599815 3.46875,47.5 z" style="fill:#000000;fill-opacity:1;fill-rule:evenodd;stroke:none;stroke-width:3;stroke-linecap:butt;stroke-linejoin:miter;stroke-opacity:1"/>
      </g>
      <path style="opacity:1;fill:none;fill-opacity:1;stroke:#000000;stroke-width:2;stroke-linecap:butt;stroke-linejoin:miter;marker:none;stroke-miterlimit:4;stroke-dasharray:none;stroke-dashoffset:0;stroke-opacity:1;visibility:visible;display:inline;overflow:visible;enable-background:accumulate" d="M 130,25 L 140,25 L 150,35 L 201.75,35" transform="translate(-60.03125,3.6378174)"/>
      <path style="opacity:1;fill:none;fill-opacity:1;stroke:#000000;stroke-width:2;stroke-linecap:butt;stroke-linejoin:miter;marker:none;stroke-miterlimit:4;stroke-dasharray:none;stroke-dashoffset:0;stroke-opacity:1;visibility:visible;display:inline;overflow:visible;enable-background:accumulate" d="M 25,55 L 202.25,55" transform="translate(-60.03125,3.6378174)"/>
    </g>
    <text style="font-size: 14px; font-style: normal; font-variant: normal; font-weight: normal; font-stretch: normal; text-align: start; line-height: 125%; writing-mode: lr-tb; text-anchor: start; opacity: 1; fill: rgb(0, 0, 0); fill-opacity: 1; stroke: none; stroke-width: 2; stroke-linecap: butt; stroke-linejoin: miter; marker: none; stroke-miterlimit: 4; stroke-dasharray: none; stroke-dashoffset: 0; stroke-opacity: 1; visibility: visible; display: inline; overflow: visible; font-family: 'DejaVu Sans'; white-space: pre;" x="13.134766" y="30"><tspan x="13.134766" y="30">A</tspan></text>
    <text style="font-size: 14px; font-style: normal; font-variant: normal; font-weight: normal; font-stretch: normal; text-align: start; line-height: 125%; writing-mode: lr-tb; text-anchor: start; opacity: 1; fill: rgb(0, 0, 0); fill-opacity: 1; stroke: none; stroke-width: 2; stroke-linecap: butt; stroke-linejoin: miter; marker: none; stroke-miterlimit: 4; stroke-dasharray: none; stroke-dashoffset: 0; stroke-opacity: 1; visibility: visible; display: inline; overflow: visible; font-family: 'DejaVu Sans'; white-space: pre;" x="13.134766" y="50"><tspan x="13.134766" y="50">B</tspan></text>
    <path style="opacity:1;fill:#000000;fill-opacity:1;stroke:none;stroke-width:2;stroke-linecap:butt;stroke-linejoin:miter;marker:none;stroke-miterlimit:4;stroke-dasharray:none;stroke-dashoffset:0;stroke-opacity:1;visibility:visible;display:inline;overflow:visible;enable-background:accumulate" d="M 15,27.5 C 15,28.880712 13.880712,30 12.5,30 11.119288,30 10,28.880712 10,27.5 10,26.119288 11.119288,25 12.5,25 c 1.380712,0 2.5,1.119288 2.5,2.5 z" transform="translate(61.536133,-2.5)"/>
    <path style="opacity:1;fill:#000000;fill-opacity:1;stroke:none;stroke-width:2;stroke-linecap:butt;stroke-linejoin:miter;marker:none;stroke-miterlimit:4;stroke-dasharray:none;stroke-dashoffset:0;stroke-opacity:1;visibility:visible;display:inline;overflow:visible;enable-background:accumulate" d="M 15,27.5 C 15,28.880712 13.880712,30 12.5,30 11.119288,30 10,28.880712 10,27.5 10,26.119288 11.119288,25 12.5,25 c 1.380712,0 2.5,1.119288 2.5,2.5 z" transform="translate(41.411133,17.5)"/>
    <path style="opacity:1;fill:none;fill-opacity:1;stroke:#000000;stroke-width:2;stroke-linecap:butt;stroke-linejoin:miter;marker:none;stroke-miterlimit:4;stroke-dasharray:none;stroke-dashoffset:0;stroke-opacity:1;visibility:visible;display:inline;overflow:visible;enable-background:accumulate" d="M 25,17.5 C 25,18.880712 23.880712,20 22.5,20 21.119288,20 20,18.880712 20,17.5 20,16.119288 21.119288,15 22.5,15 c 1.380712,0 2.5,1.119288 2.5,2.5 z" transform="translate(14.036133,7.5)"/>
    <path style="opacity:1;fill:none;fill-opacity:1;stroke:#000000;stroke-width:2;stroke-linecap:butt;stroke-linejoin:miter;marker:none;stroke-miterlimit:4;stroke-dasharray:none;stroke-dashoffset:0;stroke-opacity:1;visibility:visible;display:inline;overflow:visible;enable-background:accumulate" d="M 25,17.5 C 25,18.880712 23.880712,20 22.5,20 21.119288,20 20,18.880712 20,17.5 20,16.119288 21.119288,15 22.5,15 c 1.380712,0 2.5,1.119288 2.5,2.5 z" transform="translate(14.036133,27.5)"/>
    <path d="M 286.10756,110.14286 L 288.10756,112.58036 C 288.10756,112.58036 293.76381,119.58041 293.76381,130.14286 C 293.76381,140.70531 288.10756,147.70536 288.10756,147.70536 L 286.10756,150.14286 L 289.26381,150.14286 L 303.26381,150.14286 C 305.67188,150.14286 310.95351,150.16737 316.88881,147.73661 C 322.82411,145.30584 329.42534,140.39334 334.57631,130.86161 L 333.26381,130.14286 L 334.57631,129.42411 C 324.27319,110.35845 308.02038,110.14286 303.26381,110.14286 L 289.26381,110.14286 L 286.10756,110.14286 z M 291.98256,113.14286 L 303.26381,113.14286 C 307.94798,113.14286 321.55066,113.01265 331.23256,130.14286 C 326.46577,138.57193 320.71128,142.82677 315.51381,144.95536 C 310.15315,147.15078 305.67188,147.14286 303.26381,147.14286 L 292.01381,147.14286 C 293.8874,144.03442 296.76381,138.09351 296.76381,130.14286 C 296.76381,122.1695 293.85528,116.24267 291.98256,113.14286 z" style="fill:#000000;fill-opacity:1;fill-rule:evenodd;stroke:none;stroke-width:3;stroke-linecap:butt;stroke-linejoin:miter;stroke-opacity:1"/>
    <path style="opacity:1;fill:none;fill-opacity:1;stroke:#000000;stroke-width:2;stroke-linecap:butt;stroke-linejoin:miter;marker:none;stroke-miterlimit:4;stroke-dasharray:none;stroke-dashoffset:0;stroke-opacity:1;visibility:visible;display:inline;overflow:visible;enable-background:accumulate" d="M 249.03613,105 L 274.03613,105 L 274.03613,120 L 292.85756,119.89286"/>
    <path style="opacity: 1; fill: none; fill-opacity: 1; stroke: rgb(0, 0, 0); stroke-width: 2; stroke-linecap: butt; stroke-linejoin: miter; marker: none; stroke-miterlimit: 4; stroke-dasharray: none; stroke-dashoffset: 0; stroke-opacity: 1; visibility: visible; display: inline; overflow: visible;" d="M 140.759 155 L 225.913 155 L 225.913 140 L 294.036 140"/>
    <path style="opacity:1;fill:none;fill-opacity:1;stroke:#000000;stroke-width:2;stroke-linecap:butt;stroke-linejoin:miter;marker:none;stroke-miterlimit:4;stroke-dasharray:none;stroke-dashoffset:0;stroke-opacity:1;visibility:visible;display:inline;overflow:visible;enable-background:accumulate" d="M 189.03613,45 L 189.03613,95 L 213.03613,95"/>
    <path style="opacity:1;fill:none;fill-opacity:1;stroke:#000000;stroke-width:2;stroke-linecap:butt;stroke-linejoin:miter;marker:none;stroke-miterlimit:4;stroke-dasharray:none;stroke-dashoffset:0;stroke-opacity:1;visibility:visible;display:inline;overflow:visible;enable-background:accumulate" d="M 213.03613,115 L 169.03613,115 L 169.03613,65"/>
    <path style="opacity: 1; fill: none; fill-opacity: 1; stroke: rgb(0, 0, 0); stroke-width: 2; stroke-linecap: butt; stroke-linejoin: miter; marker: none; stroke-miterlimit: 4; stroke-dasharray: none; stroke-dashoffset: 0; stroke-opacity: 1; visibility: visible; display: inline; overflow: visible;" d="M 100.791 143.866 L 74.036 143.866 L 74.036 25"/>
    <path style="opacity: 1; fill: none; fill-opacity: 1; stroke: rgb(0, 0, 0); stroke-width: 2; stroke-linecap: butt; stroke-linejoin: miter; marker: none; stroke-miterlimit: 4; stroke-dasharray: none; stroke-dashoffset: 0; stroke-opacity: 1; visibility: visible; display: inline; overflow: visible;" d="M 54.036 45 L 54.036 159.898 L 101.358 159.898"/>
    <path style="opacity:1;fill:#000000;fill-opacity:1;stroke:none;stroke-width:2;stroke-linecap:butt;stroke-linejoin:miter;marker:none;stroke-miterlimit:4;stroke-dasharray:none;stroke-dashoffset:0;stroke-opacity:1;visibility:visible;display:inline;overflow:visible;enable-background:accumulate" d="M 15,27.5 C 15,28.880712 13.880712,30 12.5,30 11.119288,30 10,28.880712 10,27.5 10,26.119288 11.119288,25 12.5,25 c 1.380712,0 2.5,1.119288 2.5,2.5 z" transform="translate(176.66113,17.5)"/>
    <path style="opacity:1;fill:#000000;fill-opacity:1;stroke:none;stroke-width:2;stroke-linecap:butt;stroke-linejoin:miter;marker:none;stroke-miterlimit:4;stroke-dasharray:none;stroke-dashoffset:0;stroke-opacity:1;visibility:visible;display:inline;overflow:visible;enable-background:accumulate" d="M 15,27.5 C 15,28.880712 13.880712,30 12.5,30 11.119288,30 10,28.880712 10,27.5 10,26.119288 11.119288,25 12.5,25 c 1.380712,0 2.5,1.119288 2.5,2.5 z" transform="translate(156.53613,37.5)"/>
    <path style="opacity:1;fill:none;fill-opacity:1;stroke:#000000;stroke-width:2;stroke-linecap:butt;stroke-linejoin:miter;marker:none;stroke-miterlimit:4;stroke-dasharray:none;stroke-dashoffset:0;stroke-opacity:1;visibility:visible;display:inline;overflow:visible;enable-background:accumulate" d="M 25,17.5 C 25,18.880712 23.880712,20 22.5,20 21.119288,20 20,18.880712 20,17.5 20,16.119288 21.119288,15 22.5,15 c 1.380712,0 2.5,1.119288 2.5,2.5 z" transform="translate(14.036133,47.5)"/>
    <text style="font-size: 14px; font-style: normal; font-variant: normal; font-weight: normal; font-stretch: normal; text-align: start; line-height: 125%; writing-mode: lr-tb; text-anchor: start; opacity: 1; fill: rgb(0, 0, 0); fill-opacity: 1; stroke: none; stroke-width: 2; stroke-linecap: butt; stroke-linejoin: miter; marker: none; stroke-miterlimit: 4; stroke-dasharray: none; stroke-dashoffset: 0; stroke-opacity: 1; visibility: visible; display: inline; overflow: visible; font-family: 'DejaVu Sans'; white-space: pre;" x="7.3847656" y="69.75"><tspan x="7.3847656" y="69.75">C</tspan></text>
    <text style="font-size: 12px; font-style: normal; font-variant: normal; font-weight: normal; font-stretch: normal; text-align: start; line-height: 125%; writing-mode: lr-tb; text-anchor: start; opacity: 1; fill: rgb(0, 0, 0); fill-opacity: 1; stroke: none; stroke-width: 2; stroke-linecap: butt; stroke-linejoin: miter; marker: none; stroke-miterlimit: 4; stroke-dasharray: none; stroke-dashoffset: 0; stroke-opacity: 1; visibility: visible; display: inline; overflow: visible; font-family: 'DejaVu Sans'; white-space: pre;" x="17.286133" y="73.653809"><tspan x="17.286133" y="73.653809">in</tspan></text>
    <path style="opacity:1;fill:#000000;fill-opacity:1;stroke:#000000;stroke-width:2;stroke-linecap:butt;stroke-linejoin:miter;marker:none;stroke-miterlimit:4;stroke-dasharray:none;stroke-dashoffset:0;stroke-opacity:1;visibility:visible;display:inline;overflow:visible;enable-background:accumulate" d="M 254.03613,55 L 354.03613,55"/>
    <path style="opacity:1;fill:#000000;fill-opacity:1;stroke:#000000;stroke-width:2;stroke-linecap:butt;stroke-linejoin:miter;marker:none;stroke-miterlimit:4;stroke-dasharray:none;stroke-dashoffset:0;stroke-opacity:1;visibility:visible;display:inline;overflow:visible;enable-background:accumulate" d="M 332.28613,130 L 354.03613,130"/>
    <text style="font-size: 14px; font-style: normal; font-variant: normal; font-weight: normal; font-stretch: normal; text-align: start; line-height: 125%; writing-mode: lr-tb; text-anchor: start; opacity: 1; fill: rgb(0, 0, 0); fill-opacity: 1; stroke: none; stroke-width: 2; stroke-linecap: butt; stroke-linejoin: miter; marker: none; stroke-miterlimit: 4; stroke-dasharray: none; stroke-dashoffset: 0; stroke-opacity: 1; visibility: visible; display: inline; overflow: visible; font-family: 'DejaVu Sans'; white-space: pre;" x="364.13477" y="60"><tspan x="364.13477" y="60">S</tspan></text>
    <path style="opacity:1;fill:none;fill-opacity:1;stroke:#000000;stroke-width:2;stroke-linecap:butt;stroke-linejoin:miter;marker:none;stroke-miterlimit:4;stroke-dasharray:none;stroke-dashoffset:0;stroke-opacity:1;visibility:visible;display:inline;overflow:visible;enable-background:accumulate" d="M 25,17.5 C 25,18.880712 23.880712,20 22.5,20 21.119288,20 20,18.880712 20,17.5 20,16.119288 21.119288,15 22.5,15 c 1.380712,0 2.5,1.119288 2.5,2.5 z" transform="translate(334.03613,37.5)"/>
    <path style="opacity:1;fill:none;fill-opacity:1;stroke:#000000;stroke-width:2;stroke-linecap:butt;stroke-linejoin:miter;marker:none;stroke-miterlimit:4;stroke-dasharray:none;stroke-dashoffset:0;stroke-opacity:1;visibility:visible;display:inline;overflow:visible;enable-background:accumulate" d="M 25,17.5 C 25,18.880712 23.880712,20 22.5,20 21.119288,20 20,18.880712 20,17.5 20,16.119288 21.119288,15 22.5,15 c 1.380712,0 2.5,1.119288 2.5,2.5 z" transform="translate(334.03613,112.5)"/>
    <text style="font-size: 14px; font-style: normal; font-variant: normal; font-weight: normal; font-stretch: normal; text-align: start; line-height: 125%; writing-mode: lr-tb; text-anchor: start; opacity: 1; fill: rgb(0, 0, 0); fill-opacity: 1; stroke: none; stroke-width: 2; stroke-linecap: butt; stroke-linejoin: miter; marker: none; stroke-miterlimit: 4; stroke-dasharray: none; stroke-dashoffset: 0; stroke-opacity: 1; visibility: visible; display: inline; overflow: visible; font-family: 'DejaVu Sans'; white-space: pre;" x="363.38477" y="135"><tspan x="363.38477" y="135">C</tspan></text>
    <text style="font-size: 12px; font-style: normal; font-variant: normal; font-weight: normal; font-stretch: normal; text-align: start; line-height: 125%; writing-mode: lr-tb; text-anchor: start; opacity: 1; fill: rgb(0, 0, 0); fill-opacity: 1; stroke: none; stroke-width: 2; stroke-linecap: butt; stroke-linejoin: miter; marker: none; stroke-miterlimit: 4; stroke-dasharray: none; stroke-dashoffset: 0; stroke-opacity: 1; visibility: visible; display: inline; overflow: visible; font-family: 'DejaVu Sans'; white-space: pre;" x="373.28613" y="138.90381"><tspan x="373.28613" y="138.90381">out</tspan></text>
    <rect x="83.238" y="7.823" width="79.932" height="175.737" style="fill: none; stroke-dasharray: 5; stroke: rgb(255, 85, 85);"/>
    <rect x="196.617" y="25.964" width="66.327" height="105.442" style="stroke-dasharray: 4; stroke: rgb(255, 85, 85); fill: none;"/>
  </g>
</svg>