<?xml version="1.0" encoding="utf-8"?>
<svg xmlns="http://www.w3.org/2000/svg" height="50">
<path
       style="fill:none;stroke:#000000;stroke-width:2;stroke-linecap:butt;stroke-linejoin:miter;stroke-opacity:1"
       d="M 80,25 C 100,25 105,25 105,25" />
    <path
       style="fill:none;stroke:#000000;stroke-width:2;stroke-linecap:butt;stroke-linejoin:miter;stroke-opacity:1"
       d="M 41,15 L 15,15"/>
    <path
       style="fill:none;stroke:#000000;stroke-width:1.99999988;stroke-linecap:butt;stroke-linejoin:miter;stroke-opacity:1"
       d="M 42,35 L 15,35"/>
    <path
       style="font-size:medium;font-style:normal;font-variant:normal;font-weight:normal;font-stretch:normal;text-indent:0;text-align:start;text-decoration:none;line-height:normal;letter-spacing:normal;word-spacing:normal;text-transform:none;direction:ltr;block-progression:tb;writing-mode:lr-tb;text-anchor:start;fill:#000000;fill-opacity:1;stroke:none;stroke-width:3;marker:none;visibility:visible;display:inline;overflow:visible;enable-background:accumulate;font-family:Bitstream Vera Sans;-inkscape-font-specification:Bitstream Vera Sans"
       d="M 40,5 L 40,6.4285714 L 40,43.571429 L 40,45 L 41.428571,45 L 60.47619,45 C 71.744098,45 80.47619,35.999955 80.47619,25 C 80.47619,14.000045 71.744099,5.0000002 60.47619,5 C 60.47619,5 60.47619,5 41.428571,5 L 40,5 z M 42.857143,7.8571429 C 50.834264,7.8571429 55.918368,7.8571429 58.095238,7.8571429 C 59.285714,7.8571429 59.880952,7.8571429 60.178571,7.8571429 C 60.327381,7.8571429 60.409227,7.8571429 60.446429,7.8571429 C 60.465029,7.8571429 60.471543,7.8571429 60.47619,7.8571429 C 70.236853,7.857143 77.142857,15.497098 77.142857,25 C 77.142857,34.502902 69.760662,42.142857 60,42.142857 L 42.857143,42.142857 L 42.857143,7.8571429 z" />
    <text
       style="font-size:14px;font-style:normal;font-variant:normal;font-weight:normal;font-stretch:normal;text-align:end;line-height:100%;writing-mode:lr-tb;text-anchor:end;fill:#000000;fill-opacity:1;stroke:none;stroke-width:1px;stroke-linecap:butt;stroke-linejoin:miter;stroke-opacity:1;font-family:DejaVu Sans;-inkscape-font-specification:DejaVu Sans"
       x="11.460938"
       y="20"><tspan
         x="11.460938"
         y="20">A</tspan></text>
    <text
       style="font-size:14px;font-style:normal;font-variant:normal;font-weight:normal;font-stretch:normal;text-align:end;line-height:100%;writing-mode:lr-tb;text-anchor:end;fill:#000000;fill-opacity:1;stroke:none;stroke-width:1px;stroke-linecap:butt;stroke-linejoin:miter;stroke-opacity:1;font-family:DejaVu Sans;-inkscape-font-specification:DejaVu Sans"
       x="11.48828"
       y="40"><tspan
         x="11.48828"
         y="40">B</tspan></text>
    <text
       style="font-size:14px;font-style:normal;font-variant:normal;font-weight:normal;font-stretch:normal;text-align:end;line-height:100%;writing-mode:lr-tb;text-anchor:end;fill:#000000;fill-opacity:1;stroke:none;stroke-width:1px;stroke-linecap:butt;stroke-linejoin:miter;stroke-opacity:1;font-family:DejaVu Sans;-inkscape-font-specification:DejaVu Sans"
       x="118.41016"
       y="30"><tspan
         x="118.41016"
         y="30">Q</tspan></text>
</svg>
