<?xml version="1.0" encoding="utf-8"?>
<svg viewBox="28.55 127.191 480.901 175.737" width="480.901" height="175.737" xmlns="http://www.w3.org/2000/svg">
  <g transform="matrix(1, 0, 0, 1, 188.32185363769534, 132.33204650878906)">
    <path style="fill: rgb(0, 0, 0); fill-opacity: 1; stroke: none; stroke-width: 3; stroke-linejoin: miter; marker: none; stroke-opacity: 1; visibility: visible; display: inline; overflow: visible;" d="M 96.903 67.544 L 96.903 69.066 L 96.903 94.377 L 96.903 95.899 L 98.186 95.227 L 121.943 82.905 L 121.734 80.429 L 98.186 68.216 L 96.903 67.544 Z M 98.794 70.589 L 120.17 81.721 L 98.794 92.854 L 98.794 70.589 Z"/>
    <path style="fill: none; fill-opacity: 1; stroke: rgb(0, 0, 0); stroke-width: 2; stroke-linejoin: miter; marker: none; stroke-opacity: 1; visibility: visible; display: inline; overflow: visible;" d="M 126.364 81.721 C 126.364 83.67 124.338 84.888 122.716 83.913 C 121.964 83.461 121.5 82.626 121.5 81.721 C 121.5 79.773 123.527 78.555 125.148 79.53 C 125.901 79.981 126.364 80.817 126.364 81.721 Z"/>
  </g>
  <path style="font-size:medium;font-style:normal;font-variant:normal;font-weight:normal;font-stretch:normal;text-indent:0;text-align:start;text-decoration:none;line-height:normal;letter-spacing:normal;word-spacing:normal;text-transform:none;direction:ltr;block-progression:tb;writing-mode:lr-tb;text-anchor:start;fill:#000000;fill-opacity:1;stroke:none;stroke-width:3;marker:none;visibility:visible;display:inline;overflow:visible;enable-background:accumulate;font-family:Bitstream Vera Sans;-inkscape-font-specification:Bitstream Vera Sans" d="M 331.344 204.261 L 331.344 205.689 L 331.344 242.832 L 331.344 244.261 L 332.773 244.261 L 351.82 244.261 C 363.088 244.261 371.82 235.261 371.82 224.261 C 371.82 213.261 363.088 204.261 351.82 204.261 C 351.82 204.261 351.82 204.261 332.773 204.261 L 331.344 204.261 Z M 334.201 207.118 C 342.178 207.118 347.263 207.118 349.439 207.118 C 350.63 207.118 351.225 207.118 351.523 207.118 C 351.672 207.118 351.753 207.118 351.791 207.118 C 351.809 207.118 351.816 207.118 351.82 207.118 C 361.581 207.118 368.487 214.758 368.487 224.261 C 368.487 233.764 361.105 241.404 351.344 241.404 L 334.201 241.404 L 334.201 207.118 Z" transform="matrix(1, 0, 0, 1, 7.105427357601002e-15, -1.4210854715202004e-14)"/>
  <path style="font-size:medium;font-style:normal;font-variant:normal;font-weight:normal;font-stretch:normal;text-indent:0;text-align:start;text-decoration:none;line-height:normal;letter-spacing:normal;word-spacing:normal;text-transform:none;direction:ltr;block-progression:tb;writing-mode:lr-tb;text-anchor:start;fill:#000000;fill-opacity:1;stroke:none;stroke-width:3;marker:none;visibility:visible;display:inline;overflow:visible;enable-background:accumulate;font-family:Bitstream Vera Sans;-inkscape-font-specification:Bitstream Vera Sans" d="M 172.34 253.484 L 172.34 254.913 L 172.34 292.056 L 172.34 293.484 L 173.769 293.484 L 192.816 293.484 C 204.084 293.484 212.816 284.484 212.816 273.484 C 212.816 262.484 204.084 253.484 192.816 253.484 C 192.816 253.484 192.816 253.484 173.769 253.484 L 172.34 253.484 Z M 175.197 256.341 C 183.174 256.341 188.258 256.341 190.435 256.341 C 191.626 256.341 192.221 256.341 192.519 256.341 C 192.667 256.341 192.749 256.341 192.786 256.341 C 192.805 256.341 192.812 256.341 192.816 256.341 C 202.577 256.341 209.483 263.981 209.483 273.484 C 209.483 282.987 202.101 290.627 192.34 290.627 L 175.197 290.627 L 175.197 256.341 Z" transform="matrix(1, 0, 0, 1, 7.105427357601002e-15, -1.4210854715202004e-14)"/>
  <path d="M 177.859 144.368 L 60.201 144.368" style="fill: none; stroke: rgb(0, 0, 0); stroke-width: 2; stroke-linecap: butt; stroke-linejoin: miter; stroke-opacity: 1; transform-origin: 119.03px 144.368px;" transform="matrix(1, 3.0769e-8, 0, 1, 0, -0.000079155069)"/>
  <path d="M 177.859 164.368 L 60.201 164.368" style="fill: none; stroke: rgb(0, 0, 0); stroke-width: 2; stroke-linecap: butt; stroke-linejoin: miter; stroke-opacity: 1; transform-origin: 119.03px 164.368px;" transform="matrix(1, 3.0769e-8, 0, 1, -0.000039577535, -0.000079155069)"/>
  <path d="M 170.451 171.368 C 168.854 174.012 168.201 174.368 168.201 174.368 L 164.545 174.368 L 166.545 171.93 C 166.545 171.93 172.201 164.93 172.201 154.368 C 172.201 143.806 166.545 136.805 166.545 136.805 L 164.545 134.368 L 168.201 134.368 C 168.983 135.305 169.623 136.024 170.42 137.368 C 172.293 140.468 175.201 146.395 175.201 154.368 C 175.201 162.319 172.305 168.247 170.451 171.368 Z" style="fill:#000000;fill-opacity:1;fill-rule:evenodd;stroke:none;stroke-width:3;stroke-linecap:butt;stroke-linejoin:miter;stroke-opacity:1" transform="matrix(1, 0, 0, 1, 7.105427357601002e-15, -1.4210854715202004e-14)"/>
  <path d="M 170.295 134.368 L 172.295 136.805 C 172.295 136.805 177.951 143.806 177.951 154.368 C 177.951 164.93 172.295 171.93 172.295 171.93 L 170.295 174.368 L 173.451 174.368 L 187.451 174.368 C 189.859 174.368 195.141 174.392 201.076 171.962 C 207.012 169.531 213.613 164.618 218.764 155.087 L 217.451 154.368 L 218.764 153.649 C 208.461 134.584 192.208 134.368 187.451 134.368 L 173.451 134.368 L 170.295 134.368 Z M 176.17 137.368 L 187.451 137.368 C 192.135 137.368 205.738 137.238 215.42 154.368 C 210.653 162.797 204.899 167.052 199.701 169.18 C 194.341 171.376 189.859 171.368 187.451 171.368 L 176.201 171.368 C 178.075 168.26 180.951 162.319 180.951 154.368 C 180.951 146.395 178.043 140.468 176.17 137.368 Z" style="fill:#000000;fill-opacity:1;fill-rule:evenodd;stroke:none;stroke-width:3;stroke-linecap:butt;stroke-linejoin:miter;stroke-opacity:1" transform="matrix(1, 0, 0, 1, 7.105427357601002e-15, -1.4210854715202004e-14)"/>
  <path d="M 329.233 191.368 C 327.635 194.012 326.983 194.368 326.983 194.368 L 323.326 194.368 L 325.326 191.93 C 325.326 191.93 330.983 184.93 330.983 174.368 C 330.983 163.806 325.326 156.805 325.326 156.805 L 323.326 154.368 L 326.983 154.368 C 327.764 155.305 328.404 156.024 329.201 157.368 C 331.074 160.468 333.983 166.395 333.983 174.368 C 333.983 182.319 331.086 188.247 329.233 191.368 Z" style="fill:#000000;fill-opacity:1;fill-rule:evenodd;stroke:none;stroke-width:3;stroke-linecap:butt;stroke-linejoin:miter;stroke-opacity:1" transform="matrix(1, 0, 0, 1, 7.105427357601002e-15, -1.4210854715202004e-14)"/>
  <path d="M 329.076 154.368 L 331.076 156.805 C 331.076 156.805 336.733 163.806 336.733 174.368 C 336.733 184.93 331.076 191.93 331.076 191.93 L 329.076 194.368 L 332.233 194.368 L 346.233 194.368 C 348.641 194.368 353.922 194.392 359.858 191.962 C 365.793 189.531 372.394 184.618 377.545 175.087 L 376.233 174.368 L 377.545 173.649 C 367.242 154.584 350.989 154.368 346.233 154.368 L 332.233 154.368 L 329.076 154.368 Z M 334.951 157.368 L 346.233 157.368 C 350.917 157.368 364.519 157.238 374.201 174.368 C 369.435 182.797 363.68 187.052 358.483 189.18 C 353.122 191.376 348.641 191.368 346.233 191.368 L 334.983 191.368 C 336.856 188.26 339.733 182.319 339.733 174.368 C 339.733 166.395 336.824 160.468 334.951 157.368 Z" style="fill:#000000;fill-opacity:1;fill-rule:evenodd;stroke:none;stroke-width:3;stroke-linecap:butt;stroke-linejoin:miter;stroke-opacity:1" transform="matrix(1, 0, 0, 1, 7.105427357601002e-15, -1.4210854715202004e-14)"/>
  <path style="opacity: 1; fill: none; fill-opacity: 1; stroke: rgb(0, 0, 0); stroke-width: 2; stroke-linecap: butt; stroke-linejoin: miter; marker: none; stroke-miterlimit: 4; stroke-dasharray: none; stroke-dashoffset: 0; stroke-opacity: 1; visibility: visible; display: inline; overflow: visible;" d="M 216.201 154.368 L 232.961 154.368 L 249.721 164.368 L 336.452 164.368" transform="matrix(1, 0, 0, 1, 7.105427357601002e-15, -1.4210854715202004e-14)"/>
  <path style="opacity: 1; fill: none; fill-opacity: 1; stroke: rgb(0, 0, 0); stroke-width: 2; stroke-linecap: butt; stroke-linejoin: miter; marker: none; stroke-miterlimit: 4; stroke-dasharray: none; stroke-dashoffset: 0; stroke-opacity: 1; visibility: visible; display: inline; overflow: visible; transform-origin: 148.826px 184.368px;" d="M 60.201 184.368 L 237.451 184.368" transform="matrix(0.999999589509, 0, 1.02623e-7, 1, 0.000039407152, 0)"/>
  <text style="font-size: 14px; font-style: normal; font-variant: normal; font-weight: normal; font-stretch: normal; text-align: start; line-height: 125%; writing-mode: lr-tb; text-anchor: start; opacity: 1; fill: rgb(0, 0, 0); fill-opacity: 1; stroke: none; stroke-width: 2; stroke-linecap: butt; stroke-linejoin: miter; marker: none; stroke-miterlimit: 4; stroke-dasharray: none; stroke-dashoffset: 0; stroke-opacity: 1; visibility: visible; display: inline; overflow: visible; font-family: 'DejaVu Sans'; white-space: pre;" x="34.3" y="149.368" transform="matrix(1, 0, 0, 1, 7.105427357601002e-15, -1.4210854715202004e-14)"><tspan x="34.3" y="149.368" style="font-size: 14px; word-spacing: 0px;">A</tspan></text>
  <text style="font-size: 14px; font-style: normal; font-variant: normal; font-weight: normal; font-stretch: normal; text-align: start; line-height: 125%; writing-mode: lr-tb; text-anchor: start; opacity: 1; fill: rgb(0, 0, 0); fill-opacity: 1; stroke: none; stroke-width: 2; stroke-linecap: butt; stroke-linejoin: miter; marker: none; stroke-miterlimit: 4; stroke-dasharray: none; stroke-dashoffset: 0; stroke-opacity: 1; visibility: visible; display: inline; overflow: visible; font-family: 'DejaVu Sans'; white-space: pre;" x="34.3" y="169.368" transform="matrix(1, 0, 0, 1, 7.105427357601002e-15, -1.4210854715202004e-14)"><tspan x="34.3" y="169.368" style="font-size: 14px; word-spacing: 0px;">B</tspan></text>
  <path style="opacity:1;fill:#000000;fill-opacity:1;stroke:none;stroke-width:2;stroke-linecap:butt;stroke-linejoin:miter;marker:none;stroke-miterlimit:4;stroke-dasharray:none;stroke-dashoffset:0;stroke-opacity:1;visibility:visible;display:inline;overflow:visible;enable-background:accumulate" d="M 97.701 144.368 C 97.701 145.749 96.582 146.868 95.201 146.868 C 93.821 146.868 92.701 145.749 92.701 144.368 C 92.701 142.987 93.821 141.868 95.201 141.868 C 96.582 141.868 97.701 142.987 97.701 144.368 Z" transform="matrix(1, 0, 0, 1, 7.105427357601002e-15, -1.4210854715202004e-14)"/>
  <path style="opacity:1;fill:#000000;fill-opacity:1;stroke:none;stroke-width:2;stroke-linecap:butt;stroke-linejoin:miter;marker:none;stroke-miterlimit:4;stroke-dasharray:none;stroke-dashoffset:0;stroke-opacity:1;visibility:visible;display:inline;overflow:visible;enable-background:accumulate" d="M 77.576 164.368 C 77.576 165.749 76.457 166.868 75.076 166.868 C 73.696 166.868 72.576 165.749 72.576 164.368 C 72.576 162.987 73.696 161.868 75.076 161.868 C 76.457 161.868 77.576 162.987 77.576 164.368 Z" transform="matrix(1, 0, 0, 1, 7.105427357601002e-15, -1.4210854715202004e-14)"/>
  <path style="opacity:1;fill:none;fill-opacity:1;stroke:#000000;stroke-width:2;stroke-linecap:butt;stroke-linejoin:miter;marker:none;stroke-miterlimit:4;stroke-dasharray:none;stroke-dashoffset:0;stroke-opacity:1;visibility:visible;display:inline;overflow:visible;enable-background:accumulate" d="M 60.201 144.368 C 60.201 145.749 59.082 146.868 57.701 146.868 C 56.321 146.868 55.201 145.749 55.201 144.368 C 55.201 142.987 56.321 141.868 57.701 141.868 C 59.082 141.868 60.201 142.987 60.201 144.368 Z" transform="matrix(1, 0, 0, 1, 7.105427357601002e-15, -1.4210854715202004e-14)"/>
  <path style="opacity:1;fill:none;fill-opacity:1;stroke:#000000;stroke-width:2;stroke-linecap:butt;stroke-linejoin:miter;marker:none;stroke-miterlimit:4;stroke-dasharray:none;stroke-dashoffset:0;stroke-opacity:1;visibility:visible;display:inline;overflow:visible;enable-background:accumulate" d="M 60.201 164.368 C 60.201 165.749 59.082 166.868 57.701 166.868 C 56.321 166.868 55.201 165.749 55.201 164.368 C 55.201 162.987 56.321 161.868 57.701 161.868 C 59.082 161.868 60.201 162.987 60.201 164.368 Z" transform="matrix(1, 0, 0, 1, 7.105427357601002e-15, -1.4210854715202004e-14)"/>
  <path d="M 406.273 229.511 L 408.273 231.948 C 408.273 231.948 413.929 238.948 413.929 249.511 C 413.929 260.073 408.273 267.073 408.273 267.073 L 406.273 269.511 L 409.429 269.511 L 423.429 269.511 C 425.837 269.511 431.119 269.535 437.054 267.105 C 442.989 264.674 449.59 259.761 454.741 250.23 L 453.429 249.511 L 454.741 248.792 C 444.438 229.726 428.186 229.511 423.429 229.511 L 409.429 229.511 L 406.273 229.511 Z M 412.148 232.511 L 423.429 232.511 C 428.113 232.511 441.716 232.381 451.398 249.511 C 446.631 257.94 440.876 262.195 435.679 264.323 C 430.318 266.519 425.837 266.511 423.429 266.511 L 412.179 266.511 C 414.053 263.402 416.929 257.461 416.929 249.511 C 416.929 241.537 414.02 235.611 412.148 232.511 Z" style="fill:#000000;fill-opacity:1;fill-rule:evenodd;stroke:none;stroke-width:3;stroke-linecap:butt;stroke-linejoin:miter;stroke-opacity:1" transform="matrix(1, 0, 0, 1, 7.105427357601002e-15, -1.4210854715202004e-14)"/>
  <path style="opacity:1;fill:none;fill-opacity:1;stroke:#000000;stroke-width:2;stroke-linecap:butt;stroke-linejoin:miter;marker:none;stroke-miterlimit:4;stroke-dasharray:none;stroke-dashoffset:0;stroke-opacity:1;visibility:visible;display:inline;overflow:visible;enable-background:accumulate" d="M 369.201 224.368 L 394.201 224.368 L 394.201 239.368 L 413.023 239.261" transform="matrix(1, 0, 0, 1, 7.105427357601002e-15, -1.4210854715202004e-14)"/>
  <path style="opacity: 1; fill: none; fill-opacity: 1; stroke: rgb(0, 0, 0); stroke-width: 2; stroke-linecap: butt; stroke-linejoin: miter; marker: none; stroke-miterlimit: 4; stroke-dasharray: none; stroke-dashoffset: 0; stroke-opacity: 1; visibility: visible; display: inline; overflow: visible;" d="M 212.924 274.368 L 324.512 274.368 L 324.512 259.368 L 413.782 259.368" transform="matrix(1, 0, 0, 1, 7.105427357601002e-15, -1.4210854715202004e-14)"/>
  <path style="opacity:1;fill:none;fill-opacity:1;stroke:#000000;stroke-width:2;stroke-linecap:butt;stroke-linejoin:miter;marker:none;stroke-miterlimit:4;stroke-dasharray:none;stroke-dashoffset:0;stroke-opacity:1;visibility:visible;display:inline;overflow:visible;enable-background:accumulate" d="M 261.201 164.368 L 261.201 214.368 L 285.201 214.368" transform="matrix(1, 0, 0, 1, 7.105427357601002e-15, -1.4210854715202004e-14)"/>
  <path style="opacity: 1; fill: none; fill-opacity: 1; stroke: rgb(0, 0, 0); stroke-width: 2; stroke-linecap: butt; stroke-linejoin: miter; marker: none; stroke-miterlimit: 4; stroke-dasharray: none; stroke-dashoffset: 0; stroke-opacity: 1; visibility: visible; display: inline; overflow: visible;" d="M 332.555 234.368 L 241.201 234.368 L 241.201 184.368" transform="matrix(1, 0, 0, 1, 7.105427357601002e-15, -1.4210854715202004e-14)"/>
  <path style="opacity: 1; fill: none; fill-opacity: 1; stroke: rgb(0, 0, 0); stroke-width: 2; stroke-linecap: butt; stroke-linejoin: miter; marker: none; stroke-miterlimit: 4; stroke-dasharray: none; stroke-dashoffset: 0; stroke-opacity: 1; visibility: visible; display: inline; overflow: visible;" d="M 121.956 263.234 L 95.201 263.234 L 95.201 144.368" transform="matrix(1, 0, 0, 1, 7.105427357601002e-15, -1.4210854715202004e-14)"/>
  <path style="opacity: 1; fill: none; fill-opacity: 1; stroke: rgb(0, 0, 0); stroke-width: 2; stroke-linecap: butt; stroke-linejoin: miter; marker: none; stroke-miterlimit: 4; stroke-dasharray: none; stroke-dashoffset: 0; stroke-opacity: 1; visibility: visible; display: inline; overflow: visible;" d="M 75.201 164.368 L 75.201 283.571 L 172.459 283.571" transform="matrix(1, 0, 0, 1, 7.105427357601002e-15, -1.4210854715202004e-14)"/>
  <path style="opacity:1;fill:#000000;fill-opacity:1;stroke:none;stroke-width:2;stroke-linecap:butt;stroke-linejoin:miter;marker:none;stroke-miterlimit:4;stroke-dasharray:none;stroke-dashoffset:0;stroke-opacity:1;visibility:visible;display:inline;overflow:visible;enable-background:accumulate" d="M 263.826 164.368 C 263.826 165.749 262.707 166.868 261.326 166.868 C 259.946 166.868 258.826 165.749 258.826 164.368 C 258.826 162.987 259.946 161.868 261.326 161.868 C 262.707 161.868 263.826 162.987 263.826 164.368 Z" transform="matrix(1, 0, 0, 1, 7.105427357601002e-15, -1.4210854715202004e-14)"/>
  <path style="opacity:1;fill:#000000;fill-opacity:1;stroke:none;stroke-width:2;stroke-linecap:butt;stroke-linejoin:miter;marker:none;stroke-miterlimit:4;stroke-dasharray:none;stroke-dashoffset:0;stroke-opacity:1;visibility:visible;display:inline;overflow:visible;enable-background:accumulate" d="M 243.701 184.368 C 243.701 185.749 242.582 186.868 241.201 186.868 C 239.821 186.868 238.701 185.749 238.701 184.368 C 238.701 182.987 239.821 181.868 241.201 181.868 C 242.582 181.868 243.701 182.987 243.701 184.368 Z" transform="matrix(1, 0, 0, 1, 7.105427357601002e-15, -1.4210854715202004e-14)"/>
  <path style="opacity:1;fill:none;fill-opacity:1;stroke:#000000;stroke-width:2;stroke-linecap:butt;stroke-linejoin:miter;marker:none;stroke-miterlimit:4;stroke-dasharray:none;stroke-dashoffset:0;stroke-opacity:1;visibility:visible;display:inline;overflow:visible;enable-background:accumulate" d="M 60.201 184.368 C 60.201 185.749 59.082 186.868 57.701 186.868 C 56.321 186.868 55.201 185.749 55.201 184.368 C 55.201 182.987 56.321 181.868 57.701 181.868 C 59.082 181.868 60.201 182.987 60.201 184.368 Z" transform="matrix(1, 0, 0, 1, 7.105427357601002e-15, -1.4210854715202004e-14)"/>
  <text style="font-size: 14px; font-style: normal; font-variant: normal; font-weight: normal; font-stretch: normal; text-align: start; line-height: 125%; writing-mode: lr-tb; text-anchor: start; opacity: 1; fill: rgb(0, 0, 0); fill-opacity: 1; stroke: none; stroke-width: 2; stroke-linecap: butt; stroke-linejoin: miter; marker: none; stroke-miterlimit: 4; stroke-dasharray: none; stroke-dashoffset: 0; stroke-opacity: 1; visibility: visible; display: inline; overflow: visible; font-family: 'DejaVu Sans'; white-space: pre;" x="28.55" y="189.118" transform="matrix(1, 0, 0, 1, 7.105427357601002e-15, -1.4210854715202004e-14)"><tspan x="28.55" y="189.118" style="font-size: 14px; word-spacing: 0px;">B</tspan></text>
  <text style="font-size: 12px; font-style: normal; font-variant: normal; font-weight: normal; font-stretch: normal; text-align: start; line-height: 125%; writing-mode: lr-tb; text-anchor: start; opacity: 1; fill: rgb(0, 0, 0); fill-opacity: 1; stroke: none; stroke-width: 2; stroke-linecap: butt; stroke-linejoin: miter; marker: none; stroke-miterlimit: 4; stroke-dasharray: none; stroke-dashoffset: 0; stroke-opacity: 1; visibility: visible; display: inline; overflow: visible; font-family: 'DejaVu Sans'; white-space: pre;" x="38.451" y="193.022" transform="matrix(1, 0, 0, 1, 7.105427357601002e-15, -1.4210854715202004e-14)"><tspan x="38.451" y="193.022" style="font-size: 12px; word-spacing: 0px;">in</tspan></text>
  <path style="opacity: 1; fill: rgb(0, 0, 0); fill-opacity: 1; stroke: rgb(0, 0, 0); stroke-width: 2; stroke-linecap: butt; stroke-linejoin: miter; marker: none; stroke-miterlimit: 4; stroke-dasharray: none; stroke-dashoffset: 0; stroke-opacity: 1; visibility: visible; display: inline; overflow: visible; transform-origin: 424.201px 174.368px;" d="M 374.201 174.368 L 474.201 174.368" transform="matrix(1, 1.32455e-7, 0, 1.000001091394, 0, -0.000186264587)"/>
  <path style="opacity:1;fill:#000000;fill-opacity:1;stroke:#000000;stroke-width:2;stroke-linecap:butt;stroke-linejoin:miter;marker:none;stroke-miterlimit:4;stroke-dasharray:none;stroke-dashoffset:0;stroke-opacity:1;visibility:visible;display:inline;overflow:visible;enable-background:accumulate" d="M 452.451 249.368 L 474.201 249.368" transform="matrix(1, 0, 0, 1, 7.105427357601002e-15, -1.4210854715202004e-14)"/>
  <text style="font-size: 14px; font-style: normal; font-variant: normal; font-weight: normal; font-stretch: normal; text-align: start; line-height: 125%; writing-mode: lr-tb; text-anchor: start; opacity: 1; fill: rgb(0, 0, 0); fill-opacity: 1; stroke: none; stroke-width: 2; stroke-linecap: butt; stroke-linejoin: miter; marker: none; stroke-miterlimit: 4; stroke-dasharray: none; stroke-dashoffset: 0; stroke-opacity: 1; visibility: visible; display: inline; overflow: visible; font-family: 'DejaVu Sans'; white-space: pre;" x="484.3" y="179.368" transform="matrix(1, 0, 0, 1, 7.105427357601002e-15, -1.4210854715202004e-14)"><tspan x="484.3" y="179.368" style="font-size: 14px; word-spacing: 0px;">D</tspan></text>
  <path style="opacity:1;fill:none;fill-opacity:1;stroke:#000000;stroke-width:2;stroke-linecap:butt;stroke-linejoin:miter;marker:none;stroke-miterlimit:4;stroke-dasharray:none;stroke-dashoffset:0;stroke-opacity:1;visibility:visible;display:inline;overflow:visible;enable-background:accumulate" d="M 479.201 174.368 C 479.201 175.749 478.082 176.868 476.701 176.868 C 475.321 176.868 474.201 175.749 474.201 174.368 C 474.201 172.987 475.321 171.868 476.701 171.868 C 478.082 171.868 479.201 172.987 479.201 174.368 Z" transform="matrix(1, 0, 0, 1, 7.105427357601002e-15, -1.4210854715202004e-14)"/>
  <path style="opacity:1;fill:none;fill-opacity:1;stroke:#000000;stroke-width:2;stroke-linecap:butt;stroke-linejoin:miter;marker:none;stroke-miterlimit:4;stroke-dasharray:none;stroke-dashoffset:0;stroke-opacity:1;visibility:visible;display:inline;overflow:visible;enable-background:accumulate" d="M 479.201 249.368 C 479.201 250.749 478.082 251.868 476.701 251.868 C 475.321 251.868 474.201 250.749 474.201 249.368 C 474.201 247.987 475.321 246.868 476.701 246.868 C 478.082 246.868 479.201 247.987 479.201 249.368 Z" transform="matrix(1, 0, 0, 1, 7.105427357601002e-15, -1.4210854715202004e-14)"/>
  <text style="font-size: 14px; font-style: normal; font-variant: normal; font-weight: normal; font-stretch: normal; text-align: start; line-height: 125%; writing-mode: lr-tb; text-anchor: start; opacity: 1; fill: rgb(0, 0, 0); fill-opacity: 1; stroke: none; stroke-width: 2; stroke-linecap: butt; stroke-linejoin: miter; marker: none; stroke-miterlimit: 4; stroke-dasharray: none; stroke-dashoffset: 0; stroke-opacity: 1; visibility: visible; display: inline; overflow: visible; font-family: 'DejaVu Sans'; white-space: pre;" x="483.55" y="254.368" transform="matrix(1, 0, 0, 1, 7.105427357601002e-15, -1.4210854715202004e-14)"><tspan x="483.55" y="254.368" style="font-size: 14px; word-spacing: 0px;">B</tspan></text>
  <text style="font-size: 12px; font-style: normal; font-variant: normal; font-weight: normal; font-stretch: normal; text-align: start; line-height: 125%; writing-mode: lr-tb; text-anchor: start; opacity: 1; fill: rgb(0, 0, 0); fill-opacity: 1; stroke: none; stroke-width: 2; stroke-linecap: butt; stroke-linejoin: miter; marker: none; stroke-miterlimit: 4; stroke-dasharray: none; stroke-dashoffset: 0; stroke-opacity: 1; visibility: visible; display: inline; overflow: visible; font-family: 'DejaVu Sans'; white-space: pre;" x="493.451" y="258.272" transform="matrix(1, 0, 0, 1, 7.105427357601002e-15, -1.4210854715202004e-14)"><tspan x="493.451" y="258.272" style="font-size: 12px; word-spacing: 0px;">out</tspan></text>
  <rect x="67.475" y="127.191" width="160.119" height="175.737" style="fill: none; stroke-dasharray: 5; stroke: rgb(255, 85, 85);" transform="matrix(1, 0, 0, 1, 7.105427357601002e-15, -1.4210854715202004e-14)"/>
  <rect x="238.184" y="145.332" width="145.46" height="105.442" style="stroke-dasharray: 4; stroke: rgb(255, 85, 85); fill: none;" transform="matrix(1, 0, 0, 1, 7.105427357601002e-15, -1.4210854715202004e-14)"/>
  <g transform="matrix(1, 0, 0, 1, 23.05880546569825, 181.53631591796875)">
    <path style="fill: rgb(0, 0, 0); fill-opacity: 1; stroke: none; stroke-width: 3; stroke-linejoin: miter; marker: none; stroke-opacity: 1; visibility: visible; display: inline; overflow: visible;" d="M 96.903 67.544 L 96.903 69.066 L 96.903 94.377 L 96.903 95.899 L 98.186 95.227 L 121.943 82.905 L 121.734 80.429 L 98.186 68.216 L 96.903 67.544 Z M 98.794 70.589 L 120.17 81.721 L 98.794 92.854 L 98.794 70.589 Z"/>
    <path style="fill: none; fill-opacity: 1; stroke: rgb(0, 0, 0); stroke-width: 2; stroke-linejoin: miter; marker: none; stroke-opacity: 1; visibility: visible; display: inline; overflow: visible;" d="M 126.364 81.721 C 126.364 83.67 124.338 84.888 122.716 83.913 C 121.964 83.461 121.5 82.626 121.5 81.721 C 121.5 79.773 123.527 78.555 125.148 79.53 C 125.901 79.981 126.364 80.817 126.364 81.721 Z"/>
  </g>
  <path d="M 172.571 263.513 L 150.194 263.513" style="fill: none; stroke: rgb(0, 0, 0); stroke-width: 2; stroke-linecap: butt; stroke-linejoin: miter; stroke-opacity: 1; transform-origin: 161.382px 263.513px;"/>
  <path d="M 332.712 214.151 L 314.927 214.151" style="fill: none; stroke: rgb(0, 0, 0); stroke-width: 2; stroke-linecap: butt; stroke-linejoin: miter; stroke-opacity: 1; transform-origin: 323.819px 214.151px;"/>
</svg>