<?xml version="1.0" encoding="utf-8"?>
<svg viewBox="12.642 16.1365 229 94.9995" width="229" height="94.9995" xmlns="http://www.w3.org/2000/svg">
  <path d="M 195.511 91.136 C 215.511 91.136 220.511 91.136 220.511 91.136" style="fill: none; stroke: rgb(0, 0, 0); stroke-width: 2; stroke-linecap: butt; stroke-linejoin: miter; transform-origin: 208.011px 91.136px;" transform="matrix(1, -1.53181e-7, 0, 0.999999090505, 0, 0.000058207652)"/>
  <path d="M 157.672 101.136 L 48.511 101.136 L 48.511 46.136" style="fill: none; stroke: rgb(0, 0, 0); stroke-width: 2; stroke-linecap: butt; stroke-linejoin: miter;" transform="matrix(0.9999999999999999, 0, 0, 0.9999999999999999, -7.105427357601002e-15, -8.881784197001252e-16)"/>
  <path d="M 155.511 71.136 L 155.511 72.564 L 155.511 109.707 L 155.511 111.136 L 156.939 111.136 L 175.987 111.136 C 187.255 111.136 195.981 102.136 195.987 91.136 C 195.987 80.136 187.255 71.136 175.987 71.136 C 175.987 71.136 175.987 71.136 156.939 71.136 L 155.511 71.136 Z M 158.368 73.993 C 166.345 73.993 171.429 73.993 173.606 73.993 C 174.797 73.993 175.392 73.993 175.689 73.993 C 175.838 73.993 175.92 73.993 175.957 73.993 C 175.976 73.993 175.982 73.993 175.987 73.993 C 185.748 73.993 192.654 81.633 192.654 91.136 C 192.654 100.639 185.272 108.279 175.511 108.279 L 158.368 108.279 L 158.368 73.993 Z" style="stroke-width: 0; fill: rgb(0, 0, 0); stroke: none; stroke-linecap: butt; stroke-linejoin: miter;" transform="matrix(0.9999999999999999, 0, 0, 0.9999999999999999, -7.105427357601002e-15, -8.881784197001252e-16)"/>
  <path d="M 195.642 36.136 C 215.642 36.136 220.642 36.136 220.642 36.136" style="fill: none; stroke: rgb(0, 0, 0); stroke-width: 2; stroke-linecap: butt; stroke-linejoin: miter; transform-origin: 208.142px 36.136px;" transform="matrix(1, 8.3798e-8, 0, 0.999999818101, 0, -0.000002910383)"/>
  <path d="M 157.691 26.136 L 33.642 26.136" style="fill: none; stroke: rgb(0, 0, 0); stroke-width: 2; stroke-linecap: butt; stroke-linejoin: miter; transform-origin: 95.6665px 26.136px;" transform="matrix(1, -1.103e-9, 0, 1.000000036659, 0, -0.000002346156)"/>
  <path d="M 158.571 46.136 L 33.642 46.136" style="fill: none; stroke: rgb(0, 0, 0); stroke-width: 2; stroke-linecap: butt; stroke-linejoin: miter; transform-origin: 96.1065px 46.136px;"/>
  <g transform="matrix(0.9999999999999999, 0, 0, 0.9999999999999999, 152.1421661376953, -28.363483428955078)" style="stroke-width: 0; fill: rgb(0, 0, 0); stroke: none; stroke-linecap: butt; stroke-linejoin: miter;">
    <path d="M -2.25,81.500 C -3.847,84.144 -4.5,84.500 -4.5,84.500 L -8.156,84.500 L -6.156,82.062 C -6.15625,82.062505 -0.5,75.062451 -0.5,64.5 C -0.5,53.937 -6.156,46.937 -6.156,46.937 L -8.156,44.5 L -4.5,44.5 C -3.71875,45.4375 -3.078125,46.15625 -2.28125,47.5 C -0.408531,50.599815 2.5,56.526646 2.5,64.5 C 2.5,72.45065 -0.396697,78.379425 -2.25,81.500005 z"/>
    <path d="M -2.406,44.5 L -0.406,46.937 C -0.406,46.937 5.25,53.937 5.25,64.5 C 5.25,75.062 -0.406,82.062 -0.406,82.062 L -2.406,84.5 L 0.75,84.5 L 14.75,84.5 C 17.158,84.500 22.439,84.524 28.375,82.09375 C 34.310301,79.662986 40.911536,74.750484 46.0625,65.21875 L 44.75,64.5 L 46.0625,63.78125 C 35.759387,44.71559 19.506574,44.5 14.75,44.5 L 0.75,44.5 L -2.40625,44.5 z M 3.46875,47.5 L 14.75,47.5 C 19.434173,47.5 33.03685,47.369793 42.71875,64.5 C 37.951964,72.929075 32.197469,77.18391 27,79.3125 C 21.639339,81.507924 17.158075,81.500001 14.75,81.5 L 3.5,81.5 C 5.3735884,78.391566 8.25,72.45065 8.25,64.5 C 8.25,56.526646 5.3414686,50.599815 3.46875,47.5 z"/>
  </g>
  <text x="13.642" y="32.136" style="white-space: pre; font-size: 16px; font-family: 'DejaVu Sans';" transform="matrix(0.9999999999999999, 0, 0, 0.9999999999999999, -7.105427357601002e-15, -8.881784197001252e-16)">A</text>
  <text x="13.642" y="52.136" style="white-space: pre; font-size: 16px; font-family: 'DejaVu Sans';" transform="matrix(0.9999999999999999, 0, 0, 0.9999999999999999, -7.105427357601002e-15, -8.881784197001252e-16)">B</text>
  <text x="230.642" y="42.136" style="white-space: pre; font-size: 16px; font-family: 'DejaVu Sans';" transform="matrix(0.9999999999999999, 0, 0, 0.9999999999999999, -7.105427357601002e-15, -8.881784197001252e-16)">D</text>
  <text x="230.642" y="97.136" style="white-space: pre; font-size: 16px; font-family: 'DejaVu Sans';" transform="matrix(0.9999999999999999, 0, 0, 0.9999999999999999, -7.105427357601002e-15, -8.881784197001252e-16)">B</text>
  <g fill="#000" stroke="none" stroke-linejoin="miter" stroke-miterlimit="4" transform="matrix(0.9999999999999999, 0, 0, 0.9999999999999999, 8.510918617248528, 14.136333465576168)">
    <path d="M 15,27.5 A 2.5,2.5 0 1 1 10,27.5 A 2.5,2.5 0 1 1 15,27.5 z" transform="translate(47.631,-15.5)"/>
    <path d="M 15,27.5 A 2.5,2.5 0 1 1 10,27.5 A 2.5,2.5 0 1 1 15,27.5 z" transform="translate(27.506,4.5)"/>
  </g>
  <path d="M 33.642 26.136 C 33.642 28.061 31.559 29.264 29.892 28.301 C 29.118 27.855 28.642 27.029 28.642 26.136 C 28.642 24.212 30.725 23.009 32.392 23.971 C 33.165 24.418 33.642 25.243 33.642 26.136 Z" fill="none" stroke="#000" stroke-width="2" stroke-linejoin="miter" stroke-miterlimit="4" transform="matrix(0.9999999999999999, 0, 0, 0.9999999999999999, -7.105427357601002e-15, -8.881784197001252e-16)"/>
  <path d="M 33.642 46.136 C 33.642 48.061 31.559 49.264 29.892 48.301 C 29.118 47.855 28.642 47.029 28.642 46.136 C 28.642 44.212 30.725 43.009 32.392 43.971 C 33.165 44.418 33.642 45.243 33.642 46.136 Z" fill="none" stroke="#000" stroke-width="2" stroke-linejoin="miter" stroke-miterlimit="4" transform="matrix(0.9999999999999999, 0, 0, 0.9999999999999999, -7.105427357601002e-15, -8.881784197001252e-16)"/>
  <path d="M 225.642 36.136 C 225.642 38.061 223.559 39.264 221.892 38.301 C 221.118 37.855 220.642 37.029 220.642 36.136 C 220.642 34.212 222.725 33.009 224.392 33.971 C 225.165 34.418 225.642 35.243 225.642 36.136 Z" fill="none" stroke="#000" stroke-width="2" stroke-linejoin="miter" stroke-miterlimit="4" transform="matrix(0.9999999999999999, 0, 0, 0.9999999999999999, -7.105427357601002e-15, -8.881784197001252e-16)"/>
  <path d="M 225.642 91.136 C 225.642 93.061 223.559 94.264 221.892 93.301 C 221.118 92.855 220.642 92.029 220.642 91.136 C 220.642 89.212 222.725 88.009 224.392 88.971 C 225.165 89.418 225.642 90.243 225.642 91.136 Z" fill="none" stroke="#000" stroke-width="2" stroke-linejoin="miter" stroke-miterlimit="4" transform="matrix(0.9999999999999999, 0, 0, 0.9999999999999999, -7.105427357601002e-15, -8.881784197001252e-16)"/>
  <path style="fill: none; stroke: rgb(0, 0, 0); stroke-width: 2; stroke-linecap: butt; stroke-linejoin: miter; stroke-opacity: 1;" d="M 126.443 81.721 L 156.39 81.721" transform="matrix(0.9999999999999999, 0, 0, 0.9999999999999999, -7.105427357601002e-15, -8.881784197001252e-16)"/>
  <path style="fill: rgb(0, 0, 0); fill-opacity: 1; stroke: none; stroke-width: 3; stroke-linejoin: miter; marker: none; stroke-opacity: 1; visibility: visible; display: inline; overflow: visible;" d="M 96.903 67.544 L 96.903 69.066 L 96.903 94.377 L 96.903 95.899 L 98.186 95.227 L 121.943 82.905 L 121.734 80.429 L 98.186 68.216 L 96.903 67.544 Z M 98.794 70.589 L 120.17 81.721 L 98.794 92.854 L 98.794 70.589 Z" transform="matrix(0.9999999999999999, 0, 0, 0.9999999999999999, -7.105427357601002e-15, -8.881784197001252e-16)"/>
  <path style="fill: none; fill-opacity: 1; stroke: rgb(0, 0, 0); stroke-width: 2; stroke-linejoin: miter; marker: none; stroke-opacity: 1; visibility: visible; display: inline; overflow: visible;" d="M 126.364 81.721 C 126.364 83.67 124.338 84.888 122.716 83.913 C 121.964 83.461 121.5 82.626 121.5 81.721 C 121.5 79.773 123.527 78.555 125.148 79.53 C 125.901 79.981 126.364 80.817 126.364 81.721 Z" transform="matrix(0.9999999999999999, 0, 0, 0.9999999999999999, -7.105427357601002e-15, -8.881784197001252e-16)"/>
  <path d="M 97.746 81.491 L 68.566 81.491 L 68.566 26.491" style="fill: none; stroke: rgb(0, 0, 0); stroke-width: 2; stroke-linecap: butt; stroke-linejoin: miter;" transform="matrix(0.9999999999999999, 0, 0, 0.9999999999999999, -7.105427357601002e-15, -8.881784197001252e-16)"/>
</svg>