<?xml version="1.0" encoding="utf-8"?>
<svg xmlns="http://www.w3.org/2000/svg" height="50">
<path
       style="fill:none;stroke:#000000;stroke-width:2;stroke-linecap:butt;stroke-linejoin:miter;stroke-opacity:1"
       d="M 80.03125,25 C 100.03125,25 105.03125,25 105.03125,25"/>
    <path
       style="fill:none;stroke:#000000;stroke-width:2;stroke-linecap:butt;stroke-linejoin:miter;stroke-opacity:1"
       d="M 41.03125,15 L 15.03125,15"/>
    <path
       style="fill:none;stroke:#000000;stroke-width:1.99999988;stroke-linecap:butt;stroke-linejoin:miter;stroke-opacity:1"
       d="M 42.03125,35 L 15.03125,35"/>
    <g
       transform="translate(26.5,-39.5)">
      <path
         style="fill:#000000;fill-opacity:1;fill-rule:evenodd;stroke:none;stroke-width:3;stroke-linecap:butt;stroke-linejoin:miter;stroke-opacity:1"
         d="M 7.625,44.5 L 9.625,46.9375 C 9.625,46.9375 15.28125,53.937549 15.28125,64.5 C 15.28125,75.062451 9.625,82.0625 9.625,82.0625 L 7.625,84.5 L 10.78125,84.5 L 24.78125,84.5 C 27.189326,84.500001 32.470949,84.524514 38.40625,82.09375 C 44.341551,79.662986 50.942786,74.750484 56.09375,65.21875 L 54.78125,64.5 L 56.09375,63.78125 C 45.790637,44.71559 29.537824,44.5 24.78125,44.5 L 10.78125,44.5 L 7.625,44.5 z M 13.5,47.5 L 24.78125,47.5 C 29.465423,47.5 43.0681,47.369793 52.75,64.5 C 47.983214,72.929075 42.228719,77.18391 37.03125,79.3125 C 31.670589,81.507924 27.189325,81.500001 24.78125,81.5 L 13.53125,81.5 C 15.404838,78.391566 18.28125,72.45065 18.28125,64.5 C 18.28125,56.526646 15.372719,50.599815 13.5,47.5 z"
          />
      <text
         style="font-size:14px;font-style:normal;font-variant:normal;font-weight:normal;font-stretch:normal;text-align:end;line-height:100%;writing-mode:lr-tb;text-anchor:end;fill:#000000;fill-opacity:1;stroke:none;stroke-width:1px;stroke-linecap:butt;stroke-linejoin:miter;stroke-opacity:1;font-family:DejaVu Sans;-inkscape-font-specification:DejaVu Sans"
         x="-15.039063"
         y="59.706055"><tspan
           x="-15.039063"
           y="59.706055">A</tspan></text>
      <text
         style="font-size:14px;font-style:normal;font-variant:normal;font-weight:normal;font-stretch:normal;text-align:end;line-height:100%;writing-mode:lr-tb;text-anchor:end;fill:#000000;fill-opacity:1;stroke:none;stroke-width:1px;stroke-linecap:butt;stroke-linejoin:miter;stroke-opacity:1;font-family:DejaVu Sans;-inkscape-font-specification:DejaVu Sans"
         x="-15.011719"
         y="79.706055"><tspan
           x="-15.011719"
           y="79.706055">B</tspan></text>
      <text
         style="font-size:14px;font-style:normal;font-variant:normal;font-weight:normal;font-stretch:normal;text-align:end;line-height:100%;writing-mode:lr-tb;text-anchor:end;fill:#000000;fill-opacity:1;stroke:none;stroke-width:1px;stroke-linecap:butt;stroke-linejoin:miter;stroke-opacity:1;font-family:DejaVu Sans;-inkscape-font-specification:DejaVu Sans"
         x="91.910156"
         y="69.706055"><tspan
           x="91.910156"
           y="69.706055">Q</tspan></text></g>
</svg>
